<?xml version="1.0" encoding="UTF-8" standalone="no"?>
<!-- Created with Inkscape (http://www.inkscape.org/) -->

<svg
   width="279.39999mm"
   height="215.89999mm"
   viewBox="0 0 279.39999 215.89999"
   version="1.1"
   id="svg5391"
   inkscape:version="1.2.1 (9c6d41e410, 2022-07-14)"
   sodipodi:docname="bg.svg"
   xmlns:inkscape="http://www.inkscape.org/namespaces/inkscape"
   xmlns:sodipodi="http://sodipodi.sourceforge.net/DTD/sodipodi-0.dtd"
   xmlns="http://www.w3.org/2000/svg"
   xmlns:svg="http://www.w3.org/2000/svg">
  <sodipodi:namedview
     id="namedview5393"
     pagecolor="#ffffff"
     bordercolor="#000000"
     borderopacity="0.25"
     inkscape:showpageshadow="2"
     inkscape:pageopacity="0.0"
     inkscape:pagecheckerboard="0"
     inkscape:deskcolor="#d1d1d1"
     inkscape:document-units="mm"
     showgrid="false"
     inkscape:zoom="0.2102413"
     inkscape:cx="-259.22594"
     inkscape:cy="499.42613"
     inkscape:window-width="1680"
     inkscape:window-height="979"
     inkscape:window-x="-8"
     inkscape:window-y="-8"
     inkscape:window-maximized="1"
     inkscape:current-layer="layer1" />
  <defs
     id="defs5388">
    <clipPath
       clipPathUnits="userSpaceOnUse"
       id="clipPath148">
      <path
         d="M 0,612 H 792 V 0 H 0 Z"
         id="path146" />
    </clipPath>
    <clipPath
       clipPathUnits="userSpaceOnUse"
       id="clipPath1206">
      <path
         d="M -2.49902,570.051 H 792.248 V -1.4502 H -2.49902 Z"
         id="path1204" />
    </clipPath>
    <clipPath
       clipPathUnits="userSpaceOnUse"
       id="clipPath1220">
      <path
         d="M -2.43213,613.074 H 305.333 V -1.4541 H -2.43213 Z"
         id="path1218" />
    </clipPath>
    <clipPath
       clipPathUnits="userSpaceOnUse"
       id="clipPath1234">
      <path
         d="M 1.75781,611.731 H 794.043 V -0.856445 H 1.75781 Z"
         id="path1232" />
    </clipPath>
  </defs>
  <g
     inkscape:label="Слой 1"
     inkscape:groupmode="layer"
     id="layer1"
     transform="translate(5.0432125,-16.638979)">
    <g
       id="g142"
       transform="matrix(0.35277776,0,0,-0.35277778,-5.0432125,232.53898)">
      <g
         id="g144"
         clip-path="url(#clipPath148)">
        <g
           id="g150">
          <g
             id="g152"
             style="display:inline" />
        </g>
        <g
           id="g1200"
           style="display:inline">
          <g
             id="g1202" />
          <g
             id="g1212">
            <g
               clip-path="url(#clipPath1206)"
               opacity="0.360001"
               id="g1210">
              <path
                 d="m -2,74.094 c 1.25,17.949 1.323,37.097 0,55.965 m 0,83.414 C 75.806,137.669 136.991,16.724 205,22.149 c 54.107,4.777 120.92,61.064 211.232,137.143 53.394,44.841 114.181,96.789 183.525,149.962 59.604,45.821 124.841,91.489 192.243,128.206 m 0,94.338 C 686.263,475.597 584.523,403.414 494.305,329.417 390.089,243.982 303.244,159.857 231.84,86.375 200.743,54.451 173.103,24.952 148.475,-1 M 4.309,-1 C 4.206,20.964 4.817,44.704 5.936,68.228 7.388,98.798 5.06,133.687 -2,165.038 m 0,48.435 C 75.806,137.669 136.991,16.724 205,22.149 c 54.107,4.777 120.92,61.064 211.232,137.143 53.394,44.841 114.181,96.789 183.525,149.962 59.604,45.821 124.841,91.489 192.243,128.206 m 0,84.936 C 690.1,468.108 592.031,398.447 504.85,327.358 404.154,245.245 319.928,164.581 250.279,94.348 215.074,58.815 184.237,26.501 157.132,-1 M 17.025,-1 C 15.51,21.677 14.828,46.9 14.69,72.141 14.492,106.524 9.271,145.754 -2,179.303 m 0,34.17 C 75.806,137.669 136.991,16.724 205,22.149 c 54.107,4.777 120.92,61.064 211.232,137.143 53.394,44.841 114.181,96.789 183.525,149.962 59.604,45.821 124.841,91.489 192.243,128.206 m 0,75.488 C 693.934,460.586 599.522,393.608 515.395,325.308 418.225,246.406 336.585,169.309 268.718,102.144 228.984,62.982 194.756,27.798 165.103,-1 M 33.457,-1 C 24.267,50.85 14.698,120.833 -2,173.935 m 0,39.538 C 75.806,137.669 136.991,16.724 205,22.149 c 54.107,4.777 120.92,61.064 211.232,137.143 53.394,44.841 114.181,96.789 183.525,149.962 59.604,45.821 124.841,91.489 192.243,128.206 m 0,66.069 C 697.774,453.073 607.036,388.611 525.939,323.271 432.278,247.599 353.25,173.848 287.158,109.776 242.604,66.581 204.846,28.55 172.599,-1 M 48.113,-1 C 34.452,51.74 20.635,129.337 -2,184.856 m 0,28.617 C 75.806,137.669 136.991,16.724 205,22.149 c 54.107,4.777 120.92,61.064 211.232,137.143 53.394,44.841 114.181,96.789 183.525,149.962 59.604,45.821 124.841,91.489 192.243,128.206 m 0,56.65 C 701.604,445.613 614.51,383.82 536.486,321.24 446.304,248.911 369.906,178.32 305.597,117.254 255.641,69.726 214.065,28.798 179.093,-1 M 64.096,-1 C 45.33,50.591 26.811,134.86 -2,192.482 m 0,20.991 C 75.806,137.669 136.991,16.724 205,22.149 c 54.107,4.777 120.92,61.064 211.232,137.143 53.394,44.841 114.181,96.789 183.525,149.962 59.604,45.821 124.841,91.489 192.243,128.206 m 0,47.228 C 705.442,438.124 622.011,378.906 547.03,319.222 460.354,250.047 386.534,182.832 324.036,124.585 269.708,73.993 225.101,31.053 187.932,1.819 186.713,0.864 185.505,-0.076 184.306,-1 M 81.831,-1 C 57.2,47.483 33.434,138.264 -2,198.164 m 0,15.309 C 75.806,137.669 136.991,16.724 205,22.149 c 54.107,4.777 120.92,61.064 211.232,137.143 53.394,44.841 114.181,96.789 183.525,149.962 59.604,45.821 124.841,91.489 192.243,128.206 m 0,37.836 C 709.264,430.74 629.468,374.243 557.576,317.212 474.373,251.336 403.172,187.181 342.476,131.775 289.475,83.35 245.505,42.229 208.469,14.036 201.138,8.464 194.126,3.427 187.412,-1 m -85.345,0 C 70.545,41.854 40.814,139.739 -2,202.541 m 0,10.932 C 75.806,137.669 136.991,16.724 205,22.149 c 54.107,4.777 120.92,61.064 211.232,137.143 53.394,44.841 114.181,96.789 183.525,149.962 59.604,45.821 124.841,91.489 192.243,128.206 m 0,132.149 C 670.895,505.886 554.459,423.304 452.124,337.771 333.732,238.792 236.356,140.087 158.083,52.489 141.486,33.97 125.908,16.083 111.282,-1 M 792,343.235 C 656.753,265.973 525.182,151.996 390.631,116.944 259.461,83.109 127.411,149.703 -2,225.046 m 0,-11.573 C 75.806,137.669 136.991,16.724 205,22.149 c 54.107,4.777 120.92,61.064 211.232,137.143 53.394,44.841 114.181,96.789 183.525,149.962 C 659.361,355.075 724.598,400.743 792,437.46 M -2,74.094 c 1.25,17.949 1.323,37.097 0,55.965 m 0,83.414 C 75.806,137.669 136.991,16.724 205,22.149 c 54.107,4.777 120.92,61.064 211.232,137.143 53.394,44.841 114.181,96.789 183.525,149.962 59.604,45.821 124.841,91.489 192.243,128.206 m 0,94.338 C 686.263,475.597 584.523,403.414 494.305,329.417 390.089,243.982 303.244,159.857 231.84,86.375 200.743,54.451 173.103,24.952 148.475,-1 M 4.309,-1 C 4.206,20.964 4.817,44.704 5.936,68.228 7.388,98.798 5.06,133.687 -2,165.038 m 0,48.435 C 75.806,137.669 136.991,16.724 205,22.149 c 54.107,4.777 120.92,61.064 211.232,137.143 53.394,44.841 114.181,96.789 183.525,149.962 59.604,45.821 124.841,91.489 192.243,128.206 m 0,84.936 C 690.1,468.108 592.031,398.447 504.85,327.358 404.154,245.245 319.928,164.581 250.279,94.348 215.074,58.815 184.237,26.501 157.132,-1 M 17.025,-1 C 15.51,21.677 14.828,46.9 14.69,72.141 14.492,106.524 9.271,145.754 -2,179.303 m 0,34.17 C 75.806,137.669 136.991,16.724 205,22.149 c 54.107,4.777 120.92,61.064 211.232,137.143 53.394,44.841 114.181,96.789 183.525,149.962 59.604,45.821 124.841,91.489 192.243,128.206 m 0,75.488 C 693.934,460.586 599.522,393.608 515.395,325.308 418.225,246.406 336.585,169.309 268.718,102.144 228.984,62.982 194.756,27.798 165.103,-1 M 33.457,-1 C 24.267,50.85 14.698,120.833 -2,173.935 m 0,39.538 C 75.806,137.669 136.991,16.724 205,22.149 c 54.107,4.777 120.92,61.064 211.232,137.143 53.394,44.841 114.181,96.789 183.525,149.962 59.604,45.821 124.841,91.489 192.243,128.206 m 0,66.069 C 697.774,453.073 607.036,388.611 525.939,323.271 432.278,247.599 353.25,173.848 287.158,109.776 242.604,66.581 204.846,28.55 172.599,-1 M 48.113,-1 C 34.452,51.74 20.635,129.337 -2,184.856 m 0,28.617 C 75.806,137.669 136.991,16.724 205,22.149 c 54.107,4.777 120.92,61.064 211.232,137.143 53.394,44.841 114.181,96.789 183.525,149.962 59.604,45.821 124.841,91.489 192.243,128.206 m 0,56.65 C 701.604,445.613 614.51,383.82 536.486,321.24 446.304,248.911 369.906,178.32 305.597,117.254 255.641,69.726 214.065,28.798 179.093,-1 M 64.096,-1 C 45.33,50.591 26.811,134.86 -2,192.482 m 0,20.991 C 75.806,137.669 136.991,16.724 205,22.149 c 54.107,4.777 120.92,61.064 211.232,137.143 53.394,44.841 114.181,96.789 183.525,149.962 59.604,45.821 124.841,91.489 192.243,128.206 m 0,47.228 C 705.442,438.124 622.011,378.906 547.03,319.222 460.354,250.047 386.534,182.832 324.036,124.585 269.708,73.993 225.101,31.053 187.932,1.819 186.713,0.864 185.505,-0.076 184.306,-1 M 81.831,-1 C 57.2,47.483 33.434,138.264 -2,198.164 m 0,15.309 C 75.806,137.669 136.991,16.724 205,22.149 c 54.107,4.777 120.92,61.064 211.232,137.143 53.394,44.841 114.181,96.789 183.525,149.962 59.604,45.821 124.841,91.489 192.243,128.206 m 0,37.836 C 709.264,430.74 629.468,374.243 557.576,317.212 474.373,251.336 403.172,187.181 342.476,131.775 289.475,83.35 245.505,42.229 208.469,14.036 201.138,8.464 194.126,3.427 187.412,-1 m -85.345,0 C 70.545,41.854 40.814,139.739 -2,202.541 m 0,10.932 C 75.806,137.669 136.991,16.724 205,22.149 c 54.107,4.777 120.92,61.064 211.232,137.143 53.394,44.841 114.181,96.789 183.525,149.962 59.604,45.821 124.841,91.489 192.243,128.206 m 0,122.643 C 674.746,498.208 561.996,418.22 462.669,335.666 347.844,240.04 253.128,145.019 176.522,61.29 156.582,39.459 138.1,18.602 120.962,-1 M 792,343.235 C 656.753,265.973 525.182,151.996 390.631,116.944 259.461,83.109 127.411,149.703 -2,225.046 m 0,-11.573 C 75.806,137.669 136.991,16.724 205,22.149 c 54.107,4.777 120.92,61.064 211.232,137.143 53.394,44.841 114.181,96.789 183.525,149.962 C 659.361,355.075 724.598,400.743 792,437.46 M -2,74.094 c 1.25,17.949 1.323,37.097 0,55.965 m 0,83.414 C 75.806,137.669 136.991,16.724 205,22.149 c 54.107,4.777 120.92,61.064 211.232,137.143 53.394,44.841 114.181,96.789 183.525,149.962 59.604,45.821 124.841,91.489 192.243,128.206 m 0,94.338 C 686.263,475.597 584.523,403.414 494.305,329.417 390.089,243.982 303.244,159.857 231.84,86.375 200.743,54.451 173.103,24.952 148.475,-1 M 4.309,-1 C 4.206,20.964 4.817,44.704 5.936,68.228 7.388,98.798 5.06,133.687 -2,165.038 m 0,48.435 C 75.806,137.669 136.991,16.724 205,22.149 c 54.107,4.777 120.92,61.064 211.232,137.143 53.394,44.841 114.181,96.789 183.525,149.962 59.604,45.821 124.841,91.489 192.243,128.206 m 0,84.936 C 690.1,468.108 592.031,398.447 504.85,327.358 404.154,245.245 319.928,164.581 250.279,94.348 215.074,58.815 184.237,26.501 157.132,-1 M 17.025,-1 C 15.51,21.677 14.828,46.9 14.69,72.141 14.492,106.524 9.271,145.754 -2,179.303 m 0,34.17 C 75.806,137.669 136.991,16.724 205,22.149 c 54.107,4.777 120.92,61.064 211.232,137.143 53.394,44.841 114.181,96.789 183.525,149.962 59.604,45.821 124.841,91.489 192.243,128.206 m 0,75.488 C 693.934,460.586 599.522,393.608 515.395,325.308 418.225,246.406 336.585,169.309 268.718,102.144 228.984,62.982 194.756,27.798 165.103,-1 M 33.457,-1 C 24.267,50.85 14.698,120.833 -2,173.935 m 0,39.538 C 75.806,137.669 136.991,16.724 205,22.149 c 54.107,4.777 120.92,61.064 211.232,137.143 53.394,44.841 114.181,96.789 183.525,149.962 59.604,45.821 124.841,91.489 192.243,128.206 m 0,66.069 C 697.774,453.073 607.036,388.611 525.939,323.271 432.278,247.599 353.25,173.848 287.158,109.776 242.604,66.581 204.846,28.55 172.599,-1 M 48.113,-1 C 34.452,51.74 20.635,129.337 -2,184.856 m 0,28.617 C 75.806,137.669 136.991,16.724 205,22.149 c 54.107,4.777 120.92,61.064 211.232,137.143 53.394,44.841 114.181,96.789 183.525,149.962 59.604,45.821 124.841,91.489 192.243,128.206 m 0,56.65 C 701.604,445.613 614.51,383.82 536.486,321.24 446.304,248.911 369.906,178.32 305.597,117.254 255.641,69.726 214.065,28.798 179.093,-1 M 64.096,-1 C 45.33,50.591 26.811,134.86 -2,192.482 m 0,20.991 C 75.806,137.669 136.991,16.724 205,22.149 c 54.107,4.777 120.92,61.064 211.232,137.143 53.394,44.841 114.181,96.789 183.525,149.962 59.604,45.821 124.841,91.489 192.243,128.206 m 0,47.228 C 705.442,438.124 622.011,378.906 547.03,319.222 460.354,250.047 386.534,182.832 324.036,124.585 269.708,73.993 225.101,31.053 187.932,1.819 186.713,0.864 185.505,-0.076 184.306,-1 M 81.831,-1 C 57.2,47.483 33.434,138.264 -2,198.164 m 0,15.309 C 75.806,137.669 136.991,16.724 205,22.149 c 54.107,4.777 120.92,61.064 211.232,137.143 53.394,44.841 114.181,96.789 183.525,149.962 59.604,45.821 124.841,91.489 192.243,128.206 m 0,28.317 C 713.106,423.128 636.956,369.359 568.121,315.21 488.399,252.466 419.792,191.522 360.914,138.836 309.233,92.56 265.906,53.112 229.007,25.929 213.523,14.501 199.337,5.314 186.259,-1 m -59.551,0 C 86.528,31.606 49.711,139.002 -2,206.082 m 0,7.391 C 75.806,137.669 136.991,16.724 205,22.149 c 54.107,4.777 120.92,61.064 211.232,137.143 53.394,44.841 114.181,96.789 183.525,149.962 59.604,45.821 124.841,91.489 192.243,128.206 m 0,37.836 C 709.264,430.74 629.468,374.243 557.576,317.212 474.373,251.336 403.172,187.181 342.476,131.775 289.475,83.35 245.505,42.229 208.469,14.036 201.138,8.464 194.126,3.427 187.412,-1 m -85.345,0 C 70.545,41.854 40.814,139.739 -2,202.541 m 0,10.932 C 75.806,137.669 136.991,16.724 205,22.149 c 54.107,4.777 120.92,61.064 211.232,137.143 53.394,44.841 114.181,96.789 183.525,149.962 59.604,45.821 124.841,91.489 192.243,128.206 m 0,113.223 C 678.584,490.689 569.504,413.294 473.215,333.573 361.924,241.455 269.836,150.141 194.961,69.86 171.472,44.724 149.993,20.947 130.334,-1 M 792,343.235 C 656.753,265.973 525.182,151.996 390.631,116.944 259.461,83.109 127.411,149.703 -2,225.046 m 0,-11.573 C 75.806,137.669 136.991,16.724 205,22.149 c 54.107,4.777 120.92,61.064 211.232,137.143 53.394,44.841 114.181,96.789 183.525,149.962 C 659.361,355.075 724.598,400.743 792,437.46 M -2,74.094 c 1.25,17.949 1.323,37.097 0,55.965 m 0,83.414 C 75.806,137.669 136.991,16.724 205,22.149 c 54.107,4.777 120.92,61.064 211.232,137.143 53.394,44.841 114.181,96.789 183.525,149.962 59.604,45.821 124.841,91.489 192.243,128.206 m 0,94.338 C 686.263,475.597 584.523,403.414 494.305,329.417 390.089,243.982 303.244,159.857 231.84,86.375 200.743,54.451 173.103,24.952 148.475,-1 M 4.309,-1 C 4.206,20.964 4.817,44.704 5.936,68.228 7.388,98.798 5.06,133.687 -2,165.038 m 0,48.435 C 75.806,137.669 136.991,16.724 205,22.149 c 54.107,4.777 120.92,61.064 211.232,137.143 53.394,44.841 114.181,96.789 183.525,149.962 59.604,45.821 124.841,91.489 192.243,128.206 m 0,84.936 C 690.1,468.108 592.031,398.447 504.85,327.358 404.154,245.245 319.928,164.581 250.279,94.348 215.074,58.815 184.237,26.501 157.132,-1 M 17.025,-1 C 15.51,21.677 14.828,46.9 14.69,72.141 14.492,106.524 9.271,145.754 -2,179.303 m 0,34.17 C 75.806,137.669 136.991,16.724 205,22.149 c 54.107,4.777 120.92,61.064 211.232,137.143 53.394,44.841 114.181,96.789 183.525,149.962 59.604,45.821 124.841,91.489 192.243,128.206 m 0,75.488 C 693.934,460.586 599.522,393.608 515.395,325.308 418.225,246.406 336.585,169.309 268.718,102.144 228.984,62.982 194.756,27.798 165.103,-1 M 33.457,-1 C 24.267,50.85 14.698,120.833 -2,173.935 m 0,39.538 C 75.806,137.669 136.991,16.724 205,22.149 c 54.107,4.777 120.92,61.064 211.232,137.143 53.394,44.841 114.181,96.789 183.525,149.962 59.604,45.821 124.841,91.489 192.243,128.206 m 0,66.069 C 697.774,453.073 607.036,388.611 525.939,323.271 432.278,247.599 353.25,173.848 287.158,109.776 242.604,66.581 204.846,28.55 172.599,-1 M 48.113,-1 C 34.452,51.74 20.635,129.337 -2,184.856 m 0,28.617 C 75.806,137.669 136.991,16.724 205,22.149 c 54.107,4.777 120.92,61.064 211.232,137.143 53.394,44.841 114.181,96.789 183.525,149.962 59.604,45.821 124.841,91.489 192.243,128.206 m 0,56.65 C 701.604,445.613 614.51,383.82 536.486,321.24 446.304,248.911 369.906,178.32 305.597,117.254 255.641,69.726 214.065,28.798 179.093,-1 M 64.096,-1 C 45.33,50.591 26.811,134.86 -2,192.482 m 0,20.991 C 75.806,137.669 136.991,16.724 205,22.149 c 54.107,4.777 120.92,61.064 211.232,137.143 53.394,44.841 114.181,96.789 183.525,149.962 59.604,45.821 124.841,91.489 192.243,128.206 m 0,47.228 C 705.442,438.124 622.011,378.906 547.03,319.222 460.354,250.047 386.534,182.832 324.036,124.585 269.708,73.993 225.101,31.053 187.932,1.819 186.713,0.864 185.505,-0.076 184.306,-1 M 81.831,-1 C 57.2,47.483 33.434,138.264 -2,198.164 m 0,15.309 C 75.806,137.669 136.991,16.724 205,22.149 c 54.107,4.777 120.92,61.064 211.232,137.143 53.394,44.841 114.181,96.789 183.525,149.962 59.604,45.821 124.841,91.489 192.243,128.206 m 0,28.317 C 713.106,423.128 636.956,369.359 568.121,315.21 488.399,252.466 419.792,191.522 360.914,138.836 309.233,92.56 265.906,53.112 229.007,25.929 213.523,14.501 199.337,5.314 186.259,-1 m -59.551,0 C 86.528,31.606 49.711,139.002 -2,206.082 m 0,7.391 C 75.806,137.669 136.991,16.724 205,22.149 c 54.107,4.777 120.92,61.064 211.232,137.143 53.394,44.841 114.181,96.789 183.525,149.962 59.604,45.821 124.841,91.489 192.243,128.206 m 0,37.836 C 709.264,430.74 629.468,374.243 557.576,317.212 474.373,251.336 403.172,187.181 342.476,131.775 289.475,83.35 245.505,42.229 208.469,14.036 201.138,8.464 194.126,3.427 187.412,-1 m -85.345,0 C 70.545,41.854 40.814,139.739 -2,202.541 m 0,10.932 C 75.806,137.669 136.991,16.724 205,22.149 c 54.107,4.777 120.92,61.064 211.232,137.143 53.394,44.841 114.181,96.789 183.525,149.962 59.604,45.821 124.841,91.489 192.243,128.206 m 0,103.821 C 682.426,483.176 577.032,408.259 483.76,331.489 376.016,242.665 286.552,155.023 213.401,78.216 186.247,49.703 161.752,23.056 139.625,-1 M 792,343.235 C 656.753,265.973 525.182,151.996 390.631,116.944 259.461,83.109 127.411,149.703 -2,225.046 m 0,-11.573 C 75.806,137.669 136.991,16.724 205,22.149 c 54.107,4.777 120.92,61.064 211.232,137.143 53.394,44.841 114.181,96.789 183.525,149.962 59.604,45.821 124.841,91.489 192.243,128.206 m 0,-94.225 C 656.753,265.973 525.182,151.996 390.631,116.944 259.461,83.109 127.411,149.703 -2,225.046 m 0,-11.573 C 75.806,137.669 136.991,16.724 205,22.149 c 54.107,4.777 120.92,61.064 211.232,137.143 53.394,44.841 114.181,96.789 183.525,149.962 59.604,45.821 124.841,91.489 192.243,128.206 m 0,-94.225 C 656.753,265.973 525.182,151.996 390.631,116.944 259.461,83.109 127.411,149.703 -2,225.046 m 0,-11.573 C 75.806,137.669 136.991,16.724 205,22.149 c 54.107,4.777 120.92,61.064 211.232,137.143 53.394,44.841 114.181,96.789 183.525,149.962 59.604,45.821 124.841,91.489 192.243,128.206 m 0,-94.225 C 656.753,265.973 525.182,151.996 390.631,116.944 259.461,83.109 127.411,149.703 -2,225.046 m 0,-11.573 C 75.806,137.669 136.991,16.724 205,22.149 c 54.107,4.777 120.92,61.064 211.232,137.143 53.394,44.841 114.181,96.789 183.525,149.962 59.604,45.821 124.841,91.489 192.243,128.206 m 0,-94.225 C 656.753,265.973 525.182,151.996 390.631,116.944 259.461,83.109 127.411,149.703 -2,225.046 m 0,-11.573 C 75.806,137.669 136.991,16.724 205,22.149 c 54.107,4.777 120.92,61.064 211.232,137.143 53.394,44.841 114.181,96.789 183.525,149.962 59.604,45.821 124.841,91.489 192.243,128.206 m 0,-94.225 C 656.753,265.973 525.182,151.996 390.631,116.944 259.461,83.109 127.411,149.703 -2,225.046 m 0,-11.573 C 75.806,137.669 136.991,16.724 205,22.149 c 54.107,4.777 120.92,61.064 211.232,137.143 53.394,44.841 114.181,96.789 183.525,149.962 59.604,45.821 124.841,91.489 192.243,128.206 m 0,-94.225 C 656.753,265.973 525.182,151.996 390.631,116.944 259.461,83.109 127.411,149.703 -2,225.046 m 0,-11.573 C 75.806,137.669 136.991,16.724 205,22.149 c 54.107,4.777 120.92,61.064 211.232,137.143 53.394,44.841 114.181,96.789 183.525,149.962 59.604,45.821 124.841,91.489 192.243,128.206 m 0,-94.225 C 656.753,265.973 525.182,151.996 390.631,116.944 259.461,83.109 127.411,149.703 -2,225.046 m 0,-11.573 C 75.806,137.669 136.991,16.724 205,22.149 c 54.107,4.777 120.92,61.064 211.232,137.143 53.394,44.841 114.181,96.789 183.525,149.962 59.604,45.821 124.841,91.489 192.243,128.206 m 0,-94.225 C 656.753,265.973 525.182,151.996 390.631,116.944 259.461,83.109 127.411,149.703 -2,225.046 m 0,-11.573 C 75.806,137.669 136.991,16.724 205,22.149 c 54.107,4.777 120.92,61.064 211.232,137.143 53.394,44.841 114.181,96.789 183.525,149.962 C 659.361,355.075 724.598,400.743 792,437.46 M -2,213.473 C 75.806,137.669 136.991,16.724 205,22.149 c 54.107,4.777 120.92,61.064 211.232,137.143 53.394,44.841 114.181,96.789 183.525,149.962 59.604,45.821 124.841,91.489 192.243,128.206 m 0,18.902 C 716.932,415.699 644.419,364.61 578.666,313.216 502.407,253.699 436.396,195.854 379.354,145.771 284.838,62.816 218.691,1.71 167.875,0.551 112.106,-0.066 64.854,131.104 -2,208.984 M 792,343.235 C 656.753,265.973 525.182,151.996 390.631,116.944 259.461,83.109 127.411,149.703 -2,225.046 m 0,-11.573 C 75.806,137.669 136.991,16.724 205,22.149 c 54.107,4.777 120.92,61.064 211.232,137.143 53.394,44.841 114.181,96.789 183.525,149.962 C 659.361,355.075 724.598,400.743 792,437.46 M -2,213.473 C 75.806,137.669 136.991,16.724 205,22.149 c 54.107,4.777 120.92,61.064 211.232,137.143 53.394,44.841 114.181,96.789 183.525,149.962 59.604,45.821 124.841,91.489 192.243,128.206 m 0,9.483 C 720.767,408.251 651.905,359.772 589.211,311.232 516.421,254.836 453.015,200.018 397.793,152.586 305.389,73.089 238.902,14.438 186.438,11.485 124.577,8.488 70.377,134.691 -2,211.404 M 792,343.235 C 656.753,265.973 525.182,151.996 390.631,116.944 259.461,83.109 127.411,149.703 -2,225.046 m 0,-9.771 C 81.16,140.154 149.353,24.482 223.564,32.551 c 55.744,6.406 122.872,60.599 211.108,133.335 51.53,42.477 109.754,91.276 175.63,141.4 56.528,43.055 118.122,86.055 181.698,120.769 m 0,-84.82 C 656.753,265.973 525.182,151.996 390.631,116.944 259.461,83.109 127.411,149.703 -2,225.046 M 792,343.235 C 656.753,265.973 525.182,151.996 390.631,116.944 259.461,83.109 127.411,149.703 -2,225.046 m 0,-8.199 C 86.443,142.211 161.681,32.12 242.126,42.714 299.505,50.754 366.933,102.946 453.111,172.38 545.893,247.205 659.239,347.411 792,418.874 m 0,-75.639 C 656.753,265.973 525.182,151.996 390.631,116.944 259.461,83.109 127.411,149.703 -2,225.046 M 792,343.235 C 656.753,265.973 525.182,151.996 390.631,116.944 259.461,83.109 127.411,149.703 -2,225.046 m 0,-6.817 C 91.673,143.856 173.973,39.243 260.69,52.657 c 59.012,9.537 126.742,59.838 210.861,126.118 89.1,70.242 196.184,163.554 320.449,230.658 m 0,-66.198 C 656.753,265.973 525.182,151.996 390.631,116.944 259.461,83.109 127.411,149.703 -2,225.046 M 792,343.235 C 656.753,265.973 525.182,151.996 390.631,116.944 259.461,83.109 127.411,149.703 -2,225.046 m 0,-5.567 C 96.866,145.256 186.237,46.097 279.253,62.384 339.9,73.306 407.903,121.953 489.99,185.076 575.398,250.795 676.251,337.098 792,399.938 m 0,-56.703 C 656.753,265.973 525.182,151.996 390.631,116.944 259.461,83.109 127.411,149.703 -2,225.046 M 792,343.235 C 656.753,265.973 525.182,151.996 390.631,116.944 259.461,83.109 127.411,149.703 -2,225.046 m 0,-4.434 C 102.023,146.427 198.481,52.848 297.815,71.917 360.096,84.207 428.37,131.246 508.43,191.29 590.135,252.646 684.769,331.979 792,390.475 m 0,-47.24 C 656.753,265.973 525.182,151.996 390.631,116.944 259.461,83.109 127.411,149.703 -2,225.046 M 792,343.235 C 656.753,265.973 525.182,151.996 390.631,116.944 259.461,83.109 127.411,149.703 -2,225.046 m 0,-3.405 C 107.141,147.354 210.703,59.271 316.379,81.258 380.292,94.907 448.824,140.416 526.869,197.417 604.874,254.437 693.3,326.827 792,381.001 m 0,-37.766 C 656.753,265.973 525.182,151.996 390.631,116.944 259.461,83.109 127.411,149.703 -2,225.046 M 792,343.235 C 656.753,265.973 525.182,151.996 390.631,116.944 259.461,83.109 127.411,149.703 -2,225.046 m 0,-2.449 C 112.244,148.17 222.911,65.56 334.941,90.422 400.493,105.243 469.27,149.501 545.308,203.468 619.62,256.238 701.844,321.708 792,371.539 m 0,-28.304 C 656.753,265.973 525.182,151.996 390.631,116.944 259.461,83.109 127.411,149.703 -2,225.046 M 792,343.235 C 656.753,265.973 525.182,151.996 390.631,116.944 259.461,83.109 127.411,149.703 -2,225.046 m 0,-1.572 C 117.317,148.807 235.104,71.584 353.505,99.42 484.092,130.704 624.786,269.88 792,362.173 m 0,-18.938 C 656.753,265.973 525.182,151.996 390.631,116.944 259.461,83.109 127.411,149.703 -2,225.046 M 792,343.235 C 656.753,265.973 525.182,151.996 390.631,116.944 259.461,83.109 127.411,149.703 -2,225.046 m 0,-0.761 C 122.373,149.305 247.286,77.481 372.067,108.258 504.577,141.506 640.708,267.903 792,352.691"
                 style="fill:none;stroke:#e0e1f3;stroke-width:1;stroke-linecap:butt;stroke-linejoin:miter;stroke-miterlimit:4;stroke-dasharray:none;stroke-opacity:1"
                 id="path1208" />
            </g>
          </g>
        </g>
        <g
           id="g1214">
          <g
             id="g1216" />
          <g
             id="g1226">
            <g
               clip-path="url(#clipPath1220)"
               opacity="0.360001"
               id="g1224">
              <path
                 d="m -2,75.836 c 48.69,26.779 92.218,68.321 124.465,128.862 21.997,41.352 38.905,91.107 49.887,149.964 12.275,66.659 17.372,144.261 9.56,234.499 -0.684,7.919 -1.493,15.868 -2.417,23.839 M -2,57.55 c 50.656,23.855 95.649,64.121 129.201,124.64 23.251,41.989 41.297,93.038 52.942,153.996 13.405,69.36 18.987,150.655 11.077,245.559 -0.867,10.374 -1.939,20.797 -3.199,31.255 M -2,39.243 c 52.577,20.932 99.102,59.927 133.985,120.422 24.41,42.662 43.394,95.057 55.959,158.041 14.145,72.18 20.534,157.057 12.574,256.624 -1.036,12.826 -2.373,25.724 -3.984,38.67 M -2,20.866 c 54.582,17.907 102.609,55.751 138.817,116.258 25.761,43.252 45.612,97.043 58.936,162.099 15.238,74.893 22.122,163.446 14.056,267.698 -1.168,15.272 -2.755,30.644 -4.716,46.079 M -2,2.415 c 56.679,14.748 106.245,51.577 143.704,112.148 27.126,43.844 47.938,98.995 61.868,166.174 16.092,77.678 23.605,169.864 15.515,278.778 -1.313,17.714 -3.172,35.562 -5.516,53.485 M 44.649,-1 c 39.292,18.093 73.907,49.031 102.004,92.981 28.228,44.538 49.97,101.04 64.757,170.262 16.835,80.496 25.03,176.3 16.949,289.87 -1.453,20.155 -3.584,40.477 -6.312,60.887 M 85.284,-1 c 24.917,17.364 47,40.884 66.383,70.376 29.534,45.146 52.184,103.029 67.595,174.367 17.889,83.223 26.501,182.737 18.361,300.969 -1.576,22.593 -3.979,45.39 -7.104,68.288 M 116.395,-1 c 14.572,13.466 28.012,29.405 40.355,47.747 30.936,45.705 54.271,105.057 70.39,178.49 18.685,86.025 27.729,189.212 19.735,312.079 -1.703,25.028 -4.38,50.3 -7.902,75.684 M 142.453,-1 c 6.742,7.77 13.223,16.139 19.46,25.091 31.983,46.426 56.212,107.133 73.132,182.631 19.526,88.815 29.157,195.652 21.077,323.2 -1.8,27.458 -4.743,55.206 -8.669,83.078 M 165.425,-1 c 0.578,0.798 1.154,1.6 1.728,2.407 33.311,47.014 58.453,109.115 75.825,186.789 20.364,91.608 30.628,202.092 22.383,334.334 -1.917,29.89 -5.137,60.114 -9.475,90.47 M 186.128,-1 c 27.877,44.886 49.298,101.703 64.815,170.659 21.321,94.365 31.925,208.566 23.649,345.482 -1.98,32.314 -5.457,65.014 -10.207,97.859 M 205.1,-1 c 22.482,41.779 40.212,92.477 53.845,152.11 21.79,97.274 33.132,215.064 24.872,356.644 -2.089,34.743 -5.841,69.918 -11.006,105.246 M 222.752,-1 c 17.951,38.047 32.527,82.575 44.231,133.548 22.533,100.094 34.338,221.568 26.048,367.821 -2.172,37.166 -6.193,74.818 -11.78,112.631 M 239.327,-1 c 14.137,33.787 25.972,72.111 35.737,114.968 23.412,102.879 35.412,228.108 27.175,379.02 -2.218,39.585 -6.482,79.713 -12.475,120.012 m -118.842,0 c 0.616,-5.486 1.174,-10.96 1.673,-16.421 7.565,-85.534 3.246,-159.521 -8.034,-223.441 C 154.435,316.322 138.434,267.94 117.766,227.196 86.906,166.552 44.913,123.575 -2,93.998 m 0,-18.162 c 48.69,26.779 92.218,68.321 124.465,128.862 21.997,41.352 38.905,91.107 49.887,149.964 12.275,66.659 17.372,144.261 9.56,234.499 -0.684,7.919 -1.493,15.868 -2.417,23.839 M -2,57.55 c 50.656,23.855 95.649,64.121 129.201,124.64 23.251,41.989 41.297,93.038 52.942,153.996 13.405,69.36 18.987,150.655 11.077,245.559 -0.867,10.374 -1.939,20.797 -3.199,31.255 M -2,39.243 c 52.577,20.932 99.102,59.927 133.985,120.422 24.41,42.662 43.394,95.057 55.959,158.041 14.145,72.18 20.534,157.057 12.574,256.624 -1.036,12.826 -2.373,25.724 -3.984,38.67 M -2,20.866 c 54.582,17.907 102.609,55.751 138.817,116.258 25.761,43.252 45.612,97.043 58.936,162.099 15.238,74.893 22.122,163.446 14.056,267.698 -1.168,15.272 -2.755,30.644 -4.716,46.079 M -2,2.415 c 56.679,14.748 106.245,51.577 143.704,112.148 27.126,43.844 47.938,98.995 61.868,166.174 16.092,77.678 23.605,169.864 15.515,278.778 -1.313,17.714 -3.172,35.562 -5.516,53.485 M 44.649,-1 c 39.292,18.093 73.907,49.031 102.004,92.981 28.228,44.538 49.97,101.04 64.757,170.262 16.835,80.496 25.03,176.3 16.949,289.87 -1.453,20.155 -3.584,40.477 -6.312,60.887 M 85.284,-1 c 24.917,17.364 47,40.884 66.383,70.376 29.534,45.146 52.184,103.029 67.595,174.367 17.889,83.223 26.501,182.737 18.361,300.969 -1.576,22.593 -3.979,45.39 -7.104,68.288 M 116.395,-1 c 14.572,13.466 28.012,29.405 40.355,47.747 30.936,45.705 54.271,105.057 70.39,178.49 18.685,86.025 27.729,189.212 19.735,312.079 -1.703,25.028 -4.38,50.3 -7.902,75.684 M 142.453,-1 c 6.742,7.77 13.223,16.139 19.46,25.091 31.983,46.426 56.212,107.133 73.132,182.631 19.526,88.815 29.157,195.652 21.077,323.2 -1.8,27.458 -4.743,55.206 -8.669,83.078 M 165.425,-1 c 0.578,0.798 1.154,1.6 1.728,2.407 33.311,47.014 58.453,109.115 75.825,186.789 20.364,91.608 30.628,202.092 22.383,334.334 -1.917,29.89 -5.137,60.114 -9.475,90.47 M 186.128,-1 c 27.877,44.886 49.298,101.703 64.815,170.659 21.321,94.365 31.925,208.566 23.649,345.482 -1.98,32.314 -5.457,65.014 -10.207,97.859 M 205.1,-1 c 22.482,41.779 40.212,92.477 53.845,152.11 21.79,97.274 33.132,215.064 24.872,356.644 -2.089,34.743 -5.841,69.918 -11.006,105.246 m -101.889,0 c 0.616,-5.486 1.174,-10.96 1.673,-16.421 7.565,-85.534 3.246,-159.521 -8.034,-223.441 C 154.435,316.322 138.434,267.94 117.766,227.196 86.906,166.552 44.913,123.575 -2,93.998 m 0,-18.162 c 48.69,26.779 92.218,68.321 124.465,128.862 21.997,41.352 38.905,91.107 49.887,149.964 12.275,66.659 17.372,144.261 9.56,234.499 -0.684,7.919 -1.493,15.868 -2.417,23.839 M -2,57.55 c 50.656,23.855 95.649,64.121 129.201,124.64 23.251,41.989 41.297,93.038 52.942,153.996 13.405,69.36 18.987,150.655 11.077,245.559 -0.867,10.374 -1.939,20.797 -3.199,31.255 M -2,39.243 c 52.577,20.932 99.102,59.927 133.985,120.422 24.41,42.662 43.394,95.057 55.959,158.041 14.145,72.18 20.534,157.057 12.574,256.624 -1.036,12.826 -2.373,25.724 -3.984,38.67 M -2,20.866 c 54.582,17.907 102.609,55.751 138.817,116.258 25.761,43.252 45.612,97.043 58.936,162.099 15.238,74.893 22.122,163.446 14.056,267.698 -1.168,15.272 -2.755,30.644 -4.716,46.079 M -2,2.415 c 56.679,14.748 106.245,51.577 143.704,112.148 27.126,43.844 47.938,98.995 61.868,166.174 16.092,77.678 23.605,169.864 15.515,278.778 -1.313,17.714 -3.172,35.562 -5.516,53.485 M 44.649,-1 c 39.292,18.093 73.907,49.031 102.004,92.981 28.228,44.538 49.97,101.04 64.757,170.262 16.835,80.496 25.03,176.3 16.949,289.87 -1.453,20.155 -3.584,40.477 -6.312,60.887 M 85.284,-1 c 24.917,17.364 47,40.884 66.383,70.376 29.534,45.146 52.184,103.029 67.595,174.367 17.889,83.223 26.501,182.737 18.361,300.969 -1.576,22.593 -3.979,45.39 -7.104,68.288 M 116.395,-1 c 14.572,13.466 28.012,29.405 40.355,47.747 30.936,45.705 54.271,105.057 70.39,178.49 18.685,86.025 27.729,189.212 19.735,312.079 -1.703,25.028 -4.38,50.3 -7.902,75.684 M 142.453,-1 c 6.742,7.77 13.223,16.139 19.46,25.091 31.983,46.426 56.212,107.133 73.132,182.631 19.526,88.815 29.157,195.652 21.077,323.2 -1.8,27.458 -4.743,55.206 -8.669,83.078 M 165.425,-1 c 0.578,0.798 1.154,1.6 1.728,2.407 33.311,47.014 58.453,109.115 75.825,186.789 20.364,91.608 30.628,202.092 22.383,334.334 -1.917,29.89 -5.137,60.114 -9.475,90.47 M 186.128,-1 c 27.877,44.886 49.298,101.703 64.815,170.659 21.321,94.365 31.925,208.566 23.649,345.482 -1.98,32.314 -5.457,65.014 -10.207,97.859 m -93.463,0 c 0.616,-5.486 1.174,-10.96 1.673,-16.421 7.565,-85.534 3.246,-159.521 -8.034,-223.441 C 154.435,316.322 138.434,267.94 117.766,227.196 86.906,166.552 44.913,123.575 -2,93.998 m 0,-18.162 c 48.69,26.779 92.218,68.321 124.465,128.862 21.997,41.352 38.905,91.107 49.887,149.964 12.275,66.659 17.372,144.261 9.56,234.499 -0.684,7.919 -1.493,15.868 -2.417,23.839 M -2,57.55 c 50.656,23.855 95.649,64.121 129.201,124.64 23.251,41.989 41.297,93.038 52.942,153.996 13.405,69.36 18.987,150.655 11.077,245.559 -0.867,10.374 -1.939,20.797 -3.199,31.255 M -2,39.243 c 52.577,20.932 99.102,59.927 133.985,120.422 24.41,42.662 43.394,95.057 55.959,158.041 14.145,72.18 20.534,157.057 12.574,256.624 -1.036,12.826 -2.373,25.724 -3.984,38.67 M -2,20.866 c 54.582,17.907 102.609,55.751 138.817,116.258 25.761,43.252 45.612,97.043 58.936,162.099 15.238,74.893 22.122,163.446 14.056,267.698 -1.168,15.272 -2.755,30.644 -4.716,46.079 M -2,2.415 c 56.679,14.748 106.245,51.577 143.704,112.148 27.126,43.844 47.938,98.995 61.868,166.174 16.092,77.678 23.605,169.864 15.515,278.778 -1.313,17.714 -3.172,35.562 -5.516,53.485 M 44.649,-1 c 39.292,18.093 73.907,49.031 102.004,92.981 28.228,44.538 49.97,101.04 64.757,170.262 16.835,80.496 25.03,176.3 16.949,289.87 -1.453,20.155 -3.584,40.477 -6.312,60.887 M 85.284,-1 c 24.917,17.364 47,40.884 66.383,70.376 29.534,45.146 52.184,103.029 67.595,174.367 17.889,83.223 26.501,182.737 18.361,300.969 -1.576,22.593 -3.979,45.39 -7.104,68.288 M 116.395,-1 c 14.572,13.466 28.012,29.405 40.355,47.747 30.936,45.705 54.271,105.057 70.39,178.49 18.685,86.025 27.729,189.212 19.735,312.079 -1.703,25.028 -4.38,50.3 -7.902,75.684 M 142.453,-1 c 6.742,7.77 13.223,16.139 19.46,25.091 31.983,46.426 56.212,107.133 73.132,182.631 19.526,88.815 29.157,195.652 21.077,323.2 -1.8,27.458 -4.743,55.206 -8.669,83.078 M 165.425,-1 c 0.578,0.798 1.154,1.6 1.728,2.407 33.311,47.014 58.453,109.115 75.825,186.789 20.364,91.608 30.628,202.092 22.383,334.334 -1.917,29.89 -5.137,60.114 -9.475,90.47 m -84.964,0 c 0.616,-5.486 1.174,-10.96 1.673,-16.421 7.565,-85.534 3.246,-159.521 -8.034,-223.441 C 154.435,316.322 138.434,267.94 117.766,227.196 86.906,166.552 44.913,123.575 -2,93.998 m 0,-18.162 c 48.69,26.779 92.218,68.321 124.465,128.862 21.997,41.352 38.905,91.107 49.887,149.964 12.275,66.659 17.372,144.261 9.56,234.499 -0.684,7.919 -1.493,15.868 -2.417,23.839 M -2,57.55 c 50.656,23.855 95.649,64.121 129.201,124.64 23.251,41.989 41.297,93.038 52.942,153.996 13.405,69.36 18.987,150.655 11.077,245.559 -0.867,10.374 -1.939,20.797 -3.199,31.255 M -2,39.243 c 52.577,20.932 99.102,59.927 133.985,120.422 24.41,42.662 43.394,95.057 55.959,158.041 14.145,72.18 20.534,157.057 12.574,256.624 -1.036,12.826 -2.373,25.724 -3.984,38.67 M -2,20.866 c 54.582,17.907 102.609,55.751 138.817,116.258 25.761,43.252 45.612,97.043 58.936,162.099 15.238,74.893 22.122,163.446 14.056,267.698 -1.168,15.272 -2.755,30.644 -4.716,46.079 M -2,2.415 c 56.679,14.748 106.245,51.577 143.704,112.148 27.126,43.844 47.938,98.995 61.868,166.174 16.092,77.678 23.605,169.864 15.515,278.778 -1.313,17.714 -3.172,35.562 -5.516,53.485 M 44.649,-1 c 39.292,18.093 73.907,49.031 102.004,92.981 28.228,44.538 49.97,101.04 64.757,170.262 16.835,80.496 25.03,176.3 16.949,289.87 -1.453,20.155 -3.584,40.477 -6.312,60.887 M 85.284,-1 c 24.917,17.364 47,40.884 66.383,70.376 29.534,45.146 52.184,103.029 67.595,174.367 17.889,83.223 26.501,182.737 18.361,300.969 -1.576,22.593 -3.979,45.39 -7.104,68.288 M 116.395,-1 c 14.572,13.466 28.012,29.405 40.355,47.747 30.936,45.705 54.271,105.057 70.39,178.49 18.685,86.025 27.729,189.212 19.735,312.079 -1.703,25.028 -4.38,50.3 -7.902,75.684 M 142.453,-1 c 6.742,7.77 13.223,16.139 19.46,25.091 31.983,46.426 56.212,107.133 73.132,182.631 19.526,88.815 29.157,195.652 21.077,323.2 -1.8,27.458 -4.743,55.206 -8.669,83.078 m -76.531,0 c 0.616,-5.486 1.174,-10.96 1.673,-16.421 7.565,-85.534 3.246,-159.521 -8.034,-223.441 C 154.435,316.322 138.434,267.94 117.766,227.196 86.906,166.552 44.913,123.575 -2,93.998 m 0,-18.162 c 48.69,26.779 92.218,68.321 124.465,128.862 21.997,41.352 38.905,91.107 49.887,149.964 12.275,66.659 17.372,144.261 9.56,234.499 -0.684,7.919 -1.493,15.868 -2.417,23.839 M -2,57.55 c 50.656,23.855 95.649,64.121 129.201,124.64 23.251,41.989 41.297,93.038 52.942,153.996 13.405,69.36 18.987,150.655 11.077,245.559 -0.867,10.374 -1.939,20.797 -3.199,31.255 M -2,39.243 c 52.577,20.932 99.102,59.927 133.985,120.422 24.41,42.662 43.394,95.057 55.959,158.041 14.145,72.18 20.534,157.057 12.574,256.624 -1.036,12.826 -2.373,25.724 -3.984,38.67 M -2,20.866 c 54.582,17.907 102.609,55.751 138.817,116.258 25.761,43.252 45.612,97.043 58.936,162.099 15.238,74.893 22.122,163.446 14.056,267.698 -1.168,15.272 -2.755,30.644 -4.716,46.079 M -2,2.415 c 56.679,14.748 106.245,51.577 143.704,112.148 27.126,43.844 47.938,98.995 61.868,166.174 16.092,77.678 23.605,169.864 15.515,278.778 -1.313,17.714 -3.172,35.562 -5.516,53.485 M 44.649,-1 c 39.292,18.093 73.907,49.031 102.004,92.981 28.228,44.538 49.97,101.04 64.757,170.262 16.835,80.496 25.03,176.3 16.949,289.87 -1.453,20.155 -3.584,40.477 -6.312,60.887 M 85.284,-1 c 24.917,17.364 47,40.884 66.383,70.376 29.534,45.146 52.184,103.029 67.595,174.367 17.889,83.223 26.501,182.737 18.361,300.969 -1.576,22.593 -3.979,45.39 -7.104,68.288 M 116.395,-1 c 14.572,13.466 28.012,29.405 40.355,47.747 30.936,45.705 54.271,105.057 70.39,178.49 18.685,86.025 27.729,189.212 19.735,312.079 -1.703,25.028 -4.38,50.3 -7.902,75.684 m -68.051,0 c 0.616,-5.486 1.174,-10.96 1.673,-16.421 7.565,-85.534 3.246,-159.521 -8.034,-223.441 C 154.435,316.322 138.434,267.94 117.766,227.196 86.906,166.552 44.913,123.575 -2,93.998 m 0,-18.162 c 48.69,26.779 92.218,68.321 124.465,128.862 21.997,41.352 38.905,91.107 49.887,149.964 12.275,66.659 17.372,144.261 9.56,234.499 -0.684,7.919 -1.493,15.868 -2.417,23.839 M -2,57.55 c 50.656,23.855 95.649,64.121 129.201,124.64 23.251,41.989 41.297,93.038 52.942,153.996 13.405,69.36 18.987,150.655 11.077,245.559 -0.867,10.374 -1.939,20.797 -3.199,31.255 M -2,39.243 c 52.577,20.932 99.102,59.927 133.985,120.422 24.41,42.662 43.394,95.057 55.959,158.041 14.145,72.18 20.534,157.057 12.574,256.624 -1.036,12.826 -2.373,25.724 -3.984,38.67 M -2,20.866 c 54.582,17.907 102.609,55.751 138.817,116.258 25.761,43.252 45.612,97.043 58.936,162.099 15.238,74.893 22.122,163.446 14.056,267.698 -1.168,15.272 -2.755,30.644 -4.716,46.079 M -2,2.415 c 56.679,14.748 106.245,51.577 143.704,112.148 27.126,43.844 47.938,98.995 61.868,166.174 16.092,77.678 23.605,169.864 15.515,278.778 -1.313,17.714 -3.172,35.562 -5.516,53.485 M 44.649,-1 c 39.292,18.093 73.907,49.031 102.004,92.981 28.228,44.538 49.97,101.04 64.757,170.262 16.835,80.496 25.03,176.3 16.949,289.87 -1.453,20.155 -3.584,40.477 -6.312,60.887 M 85.284,-1 c 24.917,17.364 47,40.884 66.383,70.376 29.534,45.146 52.184,103.029 67.595,174.367 17.889,83.223 26.501,182.737 18.361,300.969 -1.576,22.593 -3.979,45.39 -7.104,68.288 m -59.597,0 c 0.616,-5.486 1.174,-10.96 1.673,-16.421 7.565,-85.534 3.246,-159.521 -8.034,-223.441 C 154.435,316.322 138.434,267.94 117.766,227.196 86.906,166.552 44.913,123.575 -2,93.998 m 0,-18.162 c 48.69,26.779 92.218,68.321 124.465,128.862 21.997,41.352 38.905,91.107 49.887,149.964 12.275,66.659 17.372,144.261 9.56,234.499 -0.684,7.919 -1.493,15.868 -2.417,23.839 M -2,57.55 c 50.656,23.855 95.649,64.121 129.201,124.64 23.251,41.989 41.297,93.038 52.942,153.996 13.405,69.36 18.987,150.655 11.077,245.559 -0.867,10.374 -1.939,20.797 -3.199,31.255 M -2,39.243 c 52.577,20.932 99.102,59.927 133.985,120.422 24.41,42.662 43.394,95.057 55.959,158.041 14.145,72.18 20.534,157.057 12.574,256.624 -1.036,12.826 -2.373,25.724 -3.984,38.67 M -2,20.866 c 54.582,17.907 102.609,55.751 138.817,116.258 25.761,43.252 45.612,97.043 58.936,162.099 15.238,74.893 22.122,163.446 14.056,267.698 -1.168,15.272 -2.755,30.644 -4.716,46.079 M -2,2.415 c 56.679,14.748 106.245,51.577 143.704,112.148 27.126,43.844 47.938,98.995 61.868,166.174 16.092,77.678 23.605,169.864 15.515,278.778 -1.313,17.714 -3.172,35.562 -5.516,53.485 M 44.649,-1 c 39.292,18.093 73.907,49.031 102.004,92.981 28.228,44.538 49.97,101.04 64.757,170.262 16.835,80.496 25.03,176.3 16.949,289.87 -1.453,20.155 -3.584,40.477 -6.312,60.887 m -51.125,0 c 0.616,-5.486 1.174,-10.96 1.673,-16.421 7.565,-85.534 3.246,-159.521 -8.034,-223.441 C 154.435,316.322 138.434,267.94 117.766,227.196 86.906,166.552 44.913,123.575 -2,93.998 m 0,-18.162 c 48.69,26.779 92.218,68.321 124.465,128.862 21.997,41.352 38.905,91.107 49.887,149.964 12.275,66.659 17.372,144.261 9.56,234.499 -0.684,7.919 -1.493,15.868 -2.417,23.839 M -2,57.55 c 50.656,23.855 95.649,64.121 129.201,124.64 23.251,41.989 41.297,93.038 52.942,153.996 13.405,69.36 18.987,150.655 11.077,245.559 -0.867,10.374 -1.939,20.797 -3.199,31.255 M -2,39.243 c 52.577,20.932 99.102,59.927 133.985,120.422 24.41,42.662 43.394,95.057 55.959,158.041 14.145,72.18 20.534,157.057 12.574,256.624 -1.036,12.826 -2.373,25.724 -3.984,38.67 M -2,20.866 c 54.582,17.907 102.609,55.751 138.817,116.258 25.761,43.252 45.612,97.043 58.936,162.099 15.238,74.893 22.122,163.446 14.056,267.698 -1.168,15.272 -2.755,30.644 -4.716,46.079 M -2,2.415 c 56.679,14.748 106.245,51.577 143.704,112.148 27.126,43.844 47.938,98.995 61.868,166.174 16.092,77.678 23.605,169.864 15.515,278.778 -1.313,17.714 -3.172,35.562 -5.516,53.485 m -42.649,0 c 0.616,-5.486 1.174,-10.96 1.673,-16.421 7.565,-85.534 3.246,-159.521 -8.034,-223.441 C 154.435,316.322 138.434,267.94 117.766,227.196 86.906,166.552 44.913,123.575 -2,93.998 m 0,-18.162 c 48.69,26.779 92.218,68.321 124.465,128.862 21.997,41.352 38.905,91.107 49.887,149.964 12.275,66.659 17.372,144.261 9.56,234.499 -0.684,7.919 -1.493,15.868 -2.417,23.839 M -2,57.55 c 50.656,23.855 95.649,64.121 129.201,124.64 23.251,41.989 41.297,93.038 52.942,153.996 13.405,69.36 18.987,150.655 11.077,245.559 -0.867,10.374 -1.939,20.797 -3.199,31.255 M -2,39.243 c 52.577,20.932 99.102,59.927 133.985,120.422 24.41,42.662 43.394,95.057 55.959,158.041 14.145,72.18 20.534,157.057 12.574,256.624 -1.036,12.826 -2.373,25.724 -3.984,38.67 M -2,20.866 c 54.582,17.907 102.609,55.751 138.817,116.258 25.761,43.252 45.612,97.043 58.936,162.099 15.238,74.893 22.122,163.446 14.056,267.698 -1.168,15.272 -2.755,30.644 -4.716,46.079 m -34.171,0 c 0.616,-5.486 1.174,-10.96 1.673,-16.421 7.565,-85.534 3.246,-159.521 -8.034,-223.441 C 154.435,316.322 138.434,267.94 117.766,227.196 86.906,166.552 44.913,123.575 -2,93.998 m 0,-18.162 c 48.69,26.779 92.218,68.321 124.465,128.862 21.997,41.352 38.905,91.107 49.887,149.964 12.275,66.659 17.372,144.261 9.56,234.499 -0.684,7.919 -1.493,15.868 -2.417,23.839 M -2,57.55 c 50.656,23.855 95.649,64.121 129.201,124.64 23.251,41.989 41.297,93.038 52.942,153.996 13.405,69.36 18.987,150.655 11.077,245.559 -0.867,10.374 -1.939,20.797 -3.199,31.255 M -2,39.243 c 52.577,20.932 99.102,59.927 133.985,120.422 24.41,42.662 43.394,95.057 55.959,158.041 14.145,72.18 20.534,157.057 12.574,256.624 -1.036,12.826 -2.373,25.724 -3.984,38.67 m -25.612,0 c 0.616,-5.486 1.174,-10.96 1.673,-16.421 7.565,-85.534 3.246,-159.521 -8.034,-223.441 C 154.435,316.322 138.434,267.94 117.766,227.196 86.906,166.552 44.913,123.575 -2,93.998 m 0,-18.162 c 48.69,26.779 92.218,68.321 124.465,128.862 21.997,41.352 38.905,91.107 49.887,149.964 12.275,66.659 17.372,144.261 9.56,234.499 -0.684,7.919 -1.493,15.868 -2.417,23.839 M -2,57.55 c 50.656,23.855 95.649,64.121 129.201,124.64 23.251,41.989 41.297,93.038 52.942,153.996 13.405,69.36 18.987,150.655 11.077,245.559 -0.867,10.374 -1.939,20.797 -3.199,31.255 m -17.099,0 c 0.616,-5.486 1.174,-10.96 1.673,-16.421 7.565,-85.534 3.246,-159.521 -8.034,-223.441 C 154.435,316.322 138.434,267.94 117.766,227.196 86.906,166.552 44.913,123.575 -2,93.998 m 0,-18.162 c 48.69,26.779 92.218,68.321 124.465,128.862 21.997,41.352 38.905,91.107 49.887,149.964 12.275,66.659 17.372,144.261 9.56,234.499 -0.684,7.919 -1.493,15.868 -2.417,23.839 m -8.573,0 c 0.616,-5.486 1.174,-10.96 1.673,-16.421 7.565,-85.534 3.246,-159.521 -8.034,-223.441 C 154.435,316.322 138.434,267.94 117.766,227.196 86.906,166.552 44.913,123.575 -2,93.998 M 119.362,613 C 127.612,514.277 114.67,431.625 90.122,361.979 68.202,299.754 35.979,246.818 -2,200.776 M 153.772,613 c 0.053,-0.524 0.106,-1.049 0.158,-1.573 C 168.035,466.24 146.704,355.528 108.467,272.153 80.395,211.203 41.585,165.172 -2,130.07 M 93.785,613 C 103.307,473.037 62.823,354.692 -2,252.211 M 110.779,613 C 117.611,525.515 106.709,450.063 85.56,384.427 65.27,321.762 34.734,266.95 -2,218.107 M 127.966,613 C 137.738,502.756 122.521,413.002 94.688,339.53 71.139,277.702 37.313,226.539 -2,183.281 M 136.563,613 C 147.868,491.02 130.557,394.117 99.265,317.076 74.179,255.591 38.646,206.222 -2,165.68 M 145.167,613 C 158.057,479.095 138.595,375.077 103.858,294.617 77.262,233.422 40.08,185.743 -2,147.931 M 162.362,613 c 0.321,-3.004 0.623,-6.003 0.907,-8.999 7.542,-80.869 3.79,-151.208 -6.498,-212.385 -9.307,-54.765 -24.182,-101.86 -43.67,-141.935 C 83.688,188.875 43.257,144.396 -2,112.063 M -2,268.97 C 58.223,372.49 93.401,486.676 85.449,613 m 33.913,0 C 127.612,514.277 114.67,431.625 90.122,361.979 68.202,299.754 35.979,246.818 -2,200.776 M 153.772,613 c 0.053,-0.524 0.106,-1.049 0.158,-1.573 C 168.035,466.24 146.704,355.528 108.467,272.153 80.395,211.203 41.585,165.172 -2,130.07 M 93.785,613 C 103.307,473.037 62.823,354.692 -2,252.211 M 110.779,613 C 117.611,525.515 106.709,450.063 85.56,384.427 65.27,321.762 34.734,266.95 -2,218.107 M 127.966,613 C 137.738,502.756 122.521,413.002 94.688,339.53 71.139,277.702 37.313,226.539 -2,183.281 M 136.563,613 C 147.868,491.02 130.557,394.117 99.265,317.076 74.179,255.591 38.646,206.222 -2,165.68 M 145.167,613 C 158.057,479.095 138.595,375.077 103.858,294.617 77.262,233.422 40.08,185.743 -2,147.931 M -2,268.97 C 58.223,372.49 93.401,486.676 85.449,613 m 33.913,0 C 127.612,514.277 114.67,431.625 90.122,361.979 68.202,299.754 35.979,246.818 -2,200.776 M 153.772,613 c 0.053,-0.524 0.106,-1.049 0.158,-1.573 C 168.035,466.24 146.704,355.528 108.467,272.153 80.395,211.203 41.585,165.172 -2,130.07 M 93.785,613 C 103.307,473.037 62.823,354.692 -2,252.211 M 110.779,613 C 117.611,525.515 106.709,450.063 85.56,384.427 65.27,321.762 34.734,266.95 -2,218.107 M 127.966,613 C 137.738,502.756 122.521,413.002 94.688,339.53 71.139,277.702 37.313,226.539 -2,183.281 M 136.563,613 C 147.868,491.02 130.557,394.117 99.265,317.076 74.179,255.591 38.646,206.222 -2,165.68 M 145.167,613 C 158.057,479.095 138.595,375.077 103.858,294.617 77.262,233.422 40.08,185.743 -2,147.931 M -2,268.97 C 58.223,372.49 93.401,486.676 85.449,613 m 33.913,0 C 127.612,514.277 114.67,431.625 90.122,361.979 68.202,299.754 35.979,246.818 -2,200.776 M 153.772,613 c 0.053,-0.524 0.106,-1.049 0.158,-1.573 C 168.035,466.24 146.704,355.528 108.467,272.153 80.395,211.203 41.585,165.172 -2,130.07 M 93.785,613 C 103.307,473.037 62.823,354.692 -2,252.211 M 110.779,613 C 117.611,525.515 106.709,450.063 85.56,384.427 65.27,321.762 34.734,266.95 -2,218.107 M 127.966,613 C 137.738,502.756 122.521,413.002 94.688,339.53 71.139,277.702 37.313,226.539 -2,183.281 M 136.563,613 C 147.868,491.02 130.557,394.117 99.265,317.076 74.179,255.591 38.646,206.222 -2,165.68 m 0,103.29 C 58.223,372.49 93.401,486.676 85.449,613 m 33.913,0 C 127.612,514.277 114.67,431.625 90.122,361.979 68.202,299.754 35.979,246.818 -2,200.776 M 153.772,613 c 0.053,-0.524 0.106,-1.049 0.158,-1.573 C 168.035,466.24 146.704,355.528 108.467,272.153 80.395,211.203 41.585,165.172 -2,130.07 M 93.785,613 C 103.307,473.037 62.823,354.692 -2,252.211 M 110.779,613 C 117.611,525.515 106.709,450.063 85.56,384.427 65.27,321.762 34.734,266.95 -2,218.107 M 127.966,613 C 137.738,502.756 122.521,413.002 94.688,339.53 71.139,277.702 37.313,226.539 -2,183.281 m 0,85.689 C 58.223,372.49 93.401,486.676 85.449,613 m 33.913,0 C 127.612,514.277 114.67,431.625 90.122,361.979 68.202,299.754 35.979,246.818 -2,200.776 M 153.772,613 c 0.053,-0.524 0.106,-1.049 0.158,-1.573 C 168.035,466.24 146.704,355.528 108.467,272.153 80.395,211.203 41.585,165.172 -2,130.07 M 93.785,613 C 103.307,473.037 62.823,354.692 -2,252.211 M 110.779,613 C 117.611,525.515 106.709,450.063 85.56,384.427 65.27,321.762 34.734,266.95 -2,218.107 m 0,50.863 C 58.223,372.49 93.401,486.676 85.449,613 m 33.913,0 C 127.612,514.277 114.67,431.625 90.122,361.979 68.202,299.754 35.979,246.818 -2,200.776 M 153.772,613 c 0.053,-0.524 0.106,-1.049 0.158,-1.573 C 168.035,466.24 146.704,355.528 108.467,272.153 80.395,211.203 41.585,165.172 -2,130.07 M 93.785,613 C 103.307,473.037 62.823,354.692 -2,252.211 M 110.779,613 C 117.611,525.515 106.709,450.063 85.56,384.427 65.27,321.762 34.734,266.95 -2,218.107 m 0,50.863 C 58.223,372.49 93.401,486.676 85.449,613 m 33.913,0 C 127.612,514.277 114.67,431.625 90.122,361.979 68.202,299.754 35.979,246.818 -2,200.776 M 153.772,613 c 0.053,-0.524 0.106,-1.049 0.158,-1.573 C 168.035,466.24 146.704,355.528 108.467,272.153 80.395,211.203 41.585,165.172 -2,130.07 M 93.785,613 C 103.307,473.037 62.823,354.692 -2,252.211 m 0,16.759 C 58.223,372.49 93.401,486.676 85.449,613 M -2,75.836 c 48.69,26.779 92.218,68.321 124.465,128.862 21.997,41.352 38.905,91.107 49.887,149.964 12.275,66.659 17.372,144.261 9.56,234.499 -0.684,7.919 -1.493,15.868 -2.417,23.839 M -2,57.55 c 50.656,23.855 95.649,64.121 129.201,124.64 23.251,41.989 41.297,93.038 52.942,153.996 13.405,69.36 18.987,150.655 11.077,245.559 -0.867,10.374 -1.939,20.797 -3.199,31.255 M -2,39.243 c 52.577,20.932 99.102,59.927 133.985,120.422 24.41,42.662 43.394,95.057 55.959,158.041 14.145,72.18 20.534,157.057 12.574,256.624 -1.036,12.826 -2.373,25.724 -3.984,38.67 M -2,20.866 c 54.582,17.907 102.609,55.751 138.817,116.258 25.761,43.252 45.612,97.043 58.936,162.099 15.238,74.893 22.122,163.446 14.056,267.698 -1.168,15.272 -2.755,30.644 -4.716,46.079 M -2,2.415 c 56.679,14.748 106.245,51.577 143.704,112.148 27.126,43.844 47.938,98.995 61.868,166.174 16.092,77.678 23.605,169.864 15.515,278.778 -1.313,17.714 -3.172,35.562 -5.516,53.485 M 44.649,-1 c 39.292,18.093 73.907,49.031 102.004,92.981 28.228,44.538 49.97,101.04 64.757,170.262 16.835,80.496 25.03,176.3 16.949,289.87 -1.453,20.155 -3.584,40.477 -6.312,60.887 M 85.284,-1 c 24.917,17.364 47,40.884 66.383,70.376 29.534,45.146 52.184,103.029 67.595,174.367 17.889,83.223 26.501,182.737 18.361,300.969 -1.576,22.593 -3.979,45.39 -7.104,68.288 M 116.395,-1 c 14.572,13.466 28.012,29.405 40.355,47.747 30.936,45.705 54.271,105.057 70.39,178.49 18.685,86.025 27.729,189.212 19.735,312.079 -1.703,25.028 -4.38,50.3 -7.902,75.684 M 142.453,-1 c 6.742,7.77 13.223,16.139 19.46,25.091 31.983,46.426 56.212,107.133 73.132,182.631 19.526,88.815 29.157,195.652 21.077,323.2 -1.8,27.458 -4.743,55.206 -8.669,83.078 M 165.425,-1 c 0.578,0.798 1.154,1.6 1.728,2.407 33.311,47.014 58.453,109.115 75.825,186.789 20.364,91.608 30.628,202.092 22.383,334.334 -1.917,29.89 -5.137,60.114 -9.475,90.47 M 186.128,-1 c 27.877,44.886 49.298,101.703 64.815,170.659 21.321,94.365 31.925,208.566 23.649,345.482 -1.98,32.314 -5.457,65.014 -10.207,97.859 M 205.1,-1 c 22.482,41.779 40.212,92.477 53.845,152.11 21.79,97.274 33.132,215.064 24.872,356.644 -2.089,34.743 -5.841,69.918 -11.006,105.246 M 222.752,-1 c 17.951,38.047 32.527,82.575 44.231,133.548 22.533,100.094 34.338,221.568 26.048,367.821 -2.172,37.166 -6.193,74.818 -11.78,112.631 m -110.329,0 c 0.616,-5.486 1.174,-10.96 1.673,-16.421 7.565,-85.534 3.246,-159.521 -8.034,-223.441 C 154.435,316.322 138.434,267.94 117.766,227.196 86.906,166.552 44.913,123.575 -2,93.998 M 239.327,-1 c 14.137,33.787 25.972,72.111 35.737,114.968 23.412,102.879 35.412,228.108 27.175,379.02 -2.218,39.585 -6.482,79.713 -12.475,120.012 m -187.487,0 C 113.708,458.533 67.51,336.162 -2,235.253 M 119.362,613 C 127.612,514.277 114.67,431.625 90.122,361.979 68.202,299.754 35.979,246.818 -2,200.776 M 153.772,613 c 0.053,-0.524 0.106,-1.049 0.158,-1.573 C 168.035,466.24 146.704,355.528 108.467,272.153 80.395,211.203 41.585,165.172 -2,130.07 M 93.785,613 C 103.307,473.037 62.823,354.692 -2,252.211 m 0,16.759 C 58.223,372.49 93.401,486.676 85.449,613"
                 style="fill:none;stroke:#ebebf6;stroke-width:1;stroke-linecap:butt;stroke-linejoin:miter;stroke-miterlimit:4;stroke-dasharray:none;stroke-opacity:1"
                 id="path1222" />
            </g>
          </g>
        </g>
        <g
           id="g1228"
           style="display:inline">
          <g
             id="g1230" />
          <g
             id="g1356">
            <g
               clip-path="url(#clipPath1234)"
               opacity="0.5"
               id="g1354">
              <path
                 d="m 793.938,279.271 c -76.655,-21.924 -157.571,-51.998 -235.991,-68.907 -62.724,-13.5 -122.781,-18.283 -169.125,-8.426 -45.685,9.76 -78.994,33.631 -104.366,61.231 -25.211,27.432 -42.317,56.785 -68.973,76.723 -23.254,17.367 -60.789,24.07 -103.465,16.882 C 79.132,351.228 42.44,340.286 1.858,326.97"
                 style="fill:none;stroke:#e4e4e4;stroke-width:0.5;stroke-linecap:butt;stroke-linejoin:miter;stroke-miterlimit:4;stroke-dasharray:none;stroke-opacity:1"
                 id="path1236" />
              <path
                 d="m 793.938,264.559 c -80.496,-21.926 -164.889,-52.505 -246.127,-67.447 -61.436,-11.281 -119.922,-12.658 -163.155,0.612 -43.556,13.396 -73.205,40.787 -96.238,70.98 -22.651,29.752 -38.027,60.328 -64.652,80.024 -22.984,16.964 -62.285,21.666 -106.228,12.815 C 82.851,354.529 44.389,342.169 1.858,327.616"
                 style="fill:none;stroke:#e4e4e4;stroke-width:0.5;stroke-linecap:butt;stroke-linejoin:miter;stroke-miterlimit:4;stroke-dasharray:none;stroke-opacity:1"
                 id="path1238" />
              <path
                 d="m 793.938,250.584 c -84.76,-22.491 -172.699,-53.874 -256.625,-66.745 -60.28,-9.221 -117.137,-7.172 -157.297,9.406 -41.321,17.086 -67.387,47.887 -88.01,80.723 -20.117,31.998 -33.708,63.82 -60.268,83.275 -22.683,16.582 -63.637,19.313 -108.798,8.865 C 96.369,359.939 67.354,350.651 35.879,339.874 24.777,336.068 13.44,332.103 1.858,328.021"
                 style="fill:none;stroke:#e4e4e4;stroke-width:0.5;stroke-linecap:butt;stroke-linejoin:miter;stroke-miterlimit:4;stroke-dasharray:none;stroke-opacity:1"
                 id="path1240" />
              <path
                 d="m 793.938,237.523 c -89.401,-23.657 -180.95,-56.132 -267.354,-66.854 -59.254,-7.322 -114.422,-1.863 -151.586,17.914 -38.992,20.785 -61.514,54.912 -79.734,90.396 -17.549,34.194 -29.377,67.25 -55.866,86.456 -22.395,16.196 -64.851,17.023 -111.183,5.044 C 100.754,363.378 70.868,353.202 38.398,341.64 26.481,337.388 14.305,332.977 1.858,328.458"
                 style="fill:none;stroke:#e4e4e4;stroke-width:0.5;stroke-linecap:butt;stroke-linejoin:miter;stroke-miterlimit:4;stroke-dasharray:none;stroke-opacity:1"
                 id="path1242" />
              <path
                 d="m 793.938,225.518 c -94.336,-25.417 -189.57,-59.287 -278.188,-67.81 -58.363,-5.582 -111.752,3.252 -146.049,26.104 -36.588,24.46 -55.672,61.814 -71.486,99.939 -15.041,36.305 -25.068,70.596 -51.473,89.544 -22.102,15.828 -65.931,14.763 -113.388,1.368 -28.278,-8.015 -59,-18.976 -92.377,-31.303 C 28.225,338.656 15.19,333.792 1.858,328.827"
                 style="fill:none;stroke:#e4e4e4;stroke-width:0.5;stroke-linecap:butt;stroke-linejoin:miter;stroke-miterlimit:4;stroke-dasharray:none;stroke-opacity:1"
                 id="path1244" />
              <path
                 d="m 793.938,214.619 c -99.472,-27.714 -198.469,-63.253 -289.02,-69.581 -57.602,-3.982 -109.186,8.131 -140.707,33.961 -34.16,28.059 -49.924,68.553 -63.315,109.293 -12.599,38.334 -20.836,73.83 -47.133,92.53 -21.819,15.467 -66.899,12.614 -115.417,-2.157 C 109.308,369.817 77.836,358.054 43.598,345.036 30,339.866 16.092,334.537 1.858,329.118"
                 style="fill:none;stroke:#e4e4e4;stroke-width:0.5;stroke-linecap:butt;stroke-linejoin:miter;stroke-miterlimit:4;stroke-dasharray:none;stroke-opacity:1"
                 id="path1246" />
              <path
                 d="m 793.938,204.846 c -104.705,-30.468 -207.546,-67.948 -299.76,-72.105 -56.955,-2.525 -106.694,12.766 -135.571,41.465 -31.699,31.576 -44.3,75.096 -55.275,118.41 -10.213,40.283 -16.686,76.947 -42.87,95.396 -21.545,15.117 -67.752,10.526 -117.281,-5.525 C 113.445,372.852 81.267,360.354 46.243,346.669 31.794,341.024 17.005,335.224 1.858,329.345"
                 style="fill:none;stroke:#e4e4e4;stroke-width:0.5;stroke-linecap:butt;stroke-linejoin:miter;stroke-miterlimit:4;stroke-dasharray:none;stroke-opacity:1"
                 id="path1248" />
              <path
                 d="m 793.938,196.154 c -109.943,-33.581 -216.694,-73.238 -310.323,-75.28 -40.122,-0.846 -147.206,68.337 -130.658,48.605 -29.264,34.975 -38.775,81.438 -47.406,127.252 -7.926,42.135 -12.649,79.93 -38.719,98.129 -21.286,14.781 -68.505,8.539 -118.987,-8.728 C 117.477,375.74 84.645,362.569 48.897,348.263 33.598,342.136 17.924,335.86 1.858,329.522"
                 style="fill:none;stroke:#e4e4e4;stroke-width:0.5;stroke-linecap:butt;stroke-linejoin:miter;stroke-miterlimit:4;stroke-dasharray:none;stroke-opacity:1"
                 id="path1250" />
              <path
                 d="M 793.938,188.478 C 678.827,151.535 568.129,109.504 473.297,109.485 c -55.965,0.039 -101.983,21.295 -125.965,55.383 -26.861,38.242 -33.461,87.529 -39.76,135.776 -2.951,22.744 -5.592,43.968 -10.953,62.4 -4.758,16.289 -11.658,29.98 -23.747,38.319 C 251.848,415.832 203.701,408.009 152.328,389.6 121.387,378.496 87.957,364.688 51.54,349.813 35.391,343.206 18.838,336.452 1.858,329.651"
                 style="fill:none;stroke:#e4e4e4;stroke-width:0.5;stroke-linecap:butt;stroke-linejoin:miter;stroke-miterlimit:4;stroke-dasharray:none;stroke-opacity:1"
                 id="path1252" />
              <path
                 d="M 793.938,181.684 C 752.688,167.808 711.407,153.312 670.033,140.116 595.264,116.28 522.992,97.405 463.289,98.616 407.695,99.78 363.518,123.8 341.783,160.405 c -24.521,41.369 -28.328,93.371 -32.371,143.948 -1.896,23.669 -3.598,45.611 -8.273,64.55 -4.121,16.583 -10.576,30.433 -22.559,38.613 -20.79,14.167 -69.758,4.863 -121.96,-14.626 C 125.151,381.137 91.169,366.739 54.149,351.315 37.164,344.237 19.741,337.015 1.858,329.761"
                 style="fill:none;stroke:#e4e4e4;stroke-width:0.5;stroke-linecap:butt;stroke-linejoin:miter;stroke-miterlimit:4;stroke-dasharray:none;stroke-opacity:1"
                 id="path1254" />
              <path
                 d="M 793.938,175.86 C 749.634,160.307 705.44,144.209 661.209,129.745 585.756,105.085 512.764,85.995 453.648,88.304 c -55.287,2.203 -97.666,28.822 -117.281,67.824 -22.24,44.348 -23.437,98.924 -25.279,151.734 -0.885,24.547 -1.65,47.174 -5.711,66.58 -3.522,16.853 -9.564,30.839 -21.424,38.875 -20.578,13.878 -70.27,3.171 -123.242,-17.315 C 128.765,383.64 94.278,368.698 56.711,352.769 38.907,345.22 20.63,337.534 1.858,329.835"
                 style="fill:none;stroke:#e4e4e4;stroke-width:0.5;stroke-linecap:butt;stroke-linejoin:miter;stroke-miterlimit:4;stroke-dasharray:none;stroke-opacity:1"
                 id="path1256" />
              <path
                 d="M 793.938,170.768 C 746.719,153.516 699.768,135.813 652.84,120.099 576.721,94.618 502.992,75.269 444.426,78.573 c -55.043,3.151 -95.688,32.213 -113.299,73.485 -20.061,47.162 -18.752,104.195 -18.51,159.115 0.112,25.379 0.153,48.629 -3.275,68.482 -2.961,17.099 -8.594,31.22 -20.354,39.106 -20.372,13.613 -70.72,1.595 -124.397,-19.828 C 132.202,386.029 97.274,370.557 59.204,354.166 40.604,346.153 21.498,338.007 1.858,329.868"
                 style="fill:none;stroke:#e4e4e4;stroke-width:0.5;stroke-linecap:butt;stroke-linejoin:miter;stroke-miterlimit:4;stroke-dasharray:none;stroke-opacity:1"
                 id="path1258" />
              <path
                 d="M 793.938,166.32 C 743.95,147.38 694.397,128.098 644.943,111.163 568.182,84.884 493.727,65.241 435.662,69.45 c -54.838,4.026 -93.832,35.352 -109.557,78.77 -17.998,49.802 -14.328,109.154 -12.099,166.058 1.041,26.155 1.857,49.991 -0.981,70.257 -2.443,17.322 -7.668,31.573 -19.337,39.312 -20.187,13.364 -71.097,0.097 -125.437,-22.164 C 135.487,388.242 100.123,372.336 61.615,355.504 42.243,347.05 22.334,338.464 1.858,329.902"
                 style="fill:none;stroke:#e4e4e4;stroke-width:0.5;stroke-linecap:butt;stroke-linejoin:miter;stroke-miterlimit:4;stroke-dasharray:none;stroke-opacity:1"
                 id="path1260" />
              <path
                 d="M 793.938,162.453 C 741.34,141.857 689.351,121.035 637.535,102.915 560.158,75.876 484.996,55.923 427.398,60.95 c -54.673,4.821 -92.074,38.264 -106.058,83.684 -16.049,52.267 -10.182,113.785 -6.07,172.551 1.88,26.867 3.449,51.247 1.168,71.896 -1.946,17.525 -6.829,31.879 -18.395,39.488 -20.016,13.137 -71.442,-1.255 -126.366,-24.324 C 138.552,390.35 102.843,373.98 63.916,356.772 43.818,347.877 23.14,338.866 1.858,329.904"
                 style="fill:none;stroke:#e4e4e4;stroke-width:0.5;stroke-linecap:butt;stroke-linejoin:miter;stroke-miterlimit:4;stroke-dasharray:none;stroke-opacity:1"
                 id="path1262" />
              <path
                 d="M 793.938,159.093 C 738.899,136.894 684.639,114.59 630.629,95.347 552.682,67.587 476.838,47.321 419.676,53.093 c -54.543,5.549 -90.467,40.931 -102.817,88.217 -14.216,54.552 -6.314,118.087 -0.445,178.572 2.67,27.525 4.947,52.408 3.16,73.402 -1.492,17.708 -6.053,32.151 -17.515,39.642 C 282.17,445.835 230.324,430.415 174.866,406.621 141.439,392.276 105.381,375.544 66.101,357.97 45.304,348.669 23.901,339.249 1.858,329.899"
                 style="fill:none;stroke:#e4e4e4;stroke-width:0.5;stroke-linecap:butt;stroke-linejoin:miter;stroke-miterlimit:4;stroke-dasharray:none;stroke-opacity:1"
                 id="path1264" />
              <path
                 d="M 793.938,156.194 C 736.632,132.469 680.275,108.758 624.246,88.45 545.768,60.021 469.291,39.454 412.52,45.882 c -27.104,3.096 -50.295,13.012 -66.303,28.021 -17.434,16.358 -27.842,38.737 -33.529,64.354 -12.516,56.656 -2.762,122.043 4.759,184.111 3.403,28.129 6.274,53.455 4.994,74.774 -1.099,17.866 -5.312,32.413 -16.712,39.771 -9.93,6.406 -28.226,6.421 -47.686,1.655 -23.5,-5.77 -50.242,-16.671 -80.239,-29.767 C 144.106,394.071 107.759,376.979 68.15,359.089 46.703,349.4 24.616,339.601 1.858,329.891"
                 style="fill:none;stroke:#e4e4e4;stroke-width:0.5;stroke-linecap:butt;stroke-linejoin:miter;stroke-miterlimit:4;stroke-dasharray:none;stroke-opacity:1"
                 id="path1266" />
              <path
                 d="M 793.938,153.698 C 734.552,128.541 676.275,103.515 618.4,82.214 539.443,53.171 462.365,32.304 405.963,39.337 c -27.008,3.381 -49.867,13.848 -65.395,29.435 -16.976,17.082 -26.738,40.254 -31.713,66.713 -10.949,58.575 0.514,125.651 9.516,189.153 4.065,28.672 7.525,54.41 6.666,76.01 -0.734,18.009 -4.678,32.621 -15.982,39.881 -9.856,6.287 -28.25,6.037 -47.759,0.998 C 237.613,435.45 210.708,424.212 180.49,410.79 146.557,395.702 109.929,378.317 70.054,360.124 48,350.077 25.281,339.923 1.858,329.876"
                 style="fill:none;stroke:#e4e4e4;stroke-width:0.5;stroke-linecap:butt;stroke-linejoin:miter;stroke-miterlimit:4;stroke-dasharray:none;stroke-opacity:1"
                 id="path1268" />
              <path
                 d="M 793.938,151.568 C 732.662,125.089 672.651,98.848 613.113,76.638 533.721,47.044 456.105,25.907 400.027,33.462 c -26.912,3.65 -49.498,14.594 -64.578,30.705 -16.578,17.727 -25.752,41.611 -30.072,68.836 -9.564,60.285 3.471,128.893 13.814,193.682 4.682,29.162 8.635,55.261 8.166,77.114 -0.394,18.135 -4.07,32.826 -15.324,39.972 -9.767,6.194 -28.261,5.664 -47.816,0.409 -23.844,-6.379 -50.886,-17.898 -81.306,-31.603 C 148.764,397.183 111.922,379.507 71.789,361.066 49.187,350.689 25.888,340.214 1.858,329.864"
                 style="fill:none;stroke:#e4e4e4;stroke-width:0.5;stroke-linecap:butt;stroke-linejoin:miter;stroke-miterlimit:4;stroke-dasharray:none;stroke-opacity:1"
                 id="path1270" />
              <path
                 d="M 793.938,149.762 C 730.976,122.083 669.42,94.743 608.402,71.716 528.627,41.63 450.529,20.257 394.74,28.267 c -26.838,3.875 -49.154,15.255 -63.857,31.822 -16.231,18.295 -24.832,42.826 -28.61,70.721 -8.296,61.812 6.071,131.765 17.635,197.697 5.178,29.587 9.608,56.006 9.5,78.084 -0.115,18.24 -3.549,32.993 -14.744,40.046 -9.701,6.106 -28.263,5.313 -47.866,-0.112 -23.974,-6.661 -51.149,-18.401 -81.736,-32.363 C 150.728,398.506 113.7,380.571 73.35,361.912 50.251,351.239 26.434,340.47 1.858,329.841"
                 style="fill:none;stroke:#e4e4e4;stroke-width:0.5;stroke-linecap:butt;stroke-linejoin:miter;stroke-miterlimit:4;stroke-dasharray:none;stroke-opacity:1"
                 id="path1272" />
              <path
                 d="M 793.938,148.252 C 729.499,119.509 666.593,91.196 604.281,67.45 524.176,36.937 445.654,15.349 390.117,23.755 c -26.769,4.074 -48.846,15.832 -63.226,32.793 -15.907,18.797 -24.073,43.871 -27.336,72.359 -7.211,63.135 8.349,134.268 20.974,201.192 5.67,29.96 10.483,56.653 10.657,78.92 0.136,18.33 -3.116,33.12 -14.241,40.107 -9.64,6.028 -28.267,5.037 -47.905,-0.566 -24.086,-6.884 -51.357,-18.85 -82.101,-33.017 C 152.469,399.632 115.254,381.514 74.726,362.657 51.197,351.711 26.919,340.683 1.858,329.813"
                 style="fill:none;stroke:#e4e4e4;stroke-width:0.5;stroke-linecap:butt;stroke-linejoin:miter;stroke-miterlimit:4;stroke-dasharray:none;stroke-opacity:1"
                 id="path1274" />
              <path
                 d="M 793.938,147.016 C 728.236,117.355 664.178,88.205 600.766,63.837 520.379,32.962 441.49,11.185 386.176,19.929 c -26.709,4.248 -48.584,16.322 -62.692,33.615 -15.627,19.225 -23.402,44.766 -26.244,73.752 -6.271,64.264 10.299,136.392 23.813,204.156 6.023,30.272 11.205,57.199 11.638,79.626 0.354,18.408 -2.726,33.245 -13.812,40.156 -9.586,5.966 -28.273,4.805 -47.939,-0.948 C 246.759,443.21 219.406,431.062 188.538,416.717 153.923,400.632 116.585,382.315 75.908,363.296 52.006,352.122 27.334,340.868 1.858,329.789"
                 style="fill:none;stroke:#e4e4e4;stroke-width:0.5;stroke-linecap:butt;stroke-linejoin:miter;stroke-miterlimit:4;stroke-dasharray:none;stroke-opacity:1"
                 id="path1276" />
              <path
                 d="M 793.938,146.028 C 727.194,115.605 662.189,85.76 597.873,60.88 517.254,29.708 438.076,7.79 382.934,16.794 c -26.666,4.383 -48.383,16.719 -62.252,34.295 -15.414,19.564 -22.846,45.496 -25.35,74.892 -5.513,65.184 11.906,138.137 26.148,206.586 6.366,30.529 11.795,57.643 12.444,80.202 0.529,18.469 -2.412,33.338 -13.465,40.192 -9.543,5.914 -28.271,4.608 -47.959,-1.262 -24.258,-7.234 -51.684,-19.525 -82.651,-34.018 C 155.128,401.44 117.684,382.974 76.886,363.825 52.681,352.452 27.681,341.013 1.858,329.763"
                 style="fill:none;stroke:#e4e4e4;stroke-width:0.5;stroke-linecap:butt;stroke-linejoin:miter;stroke-miterlimit:4;stroke-dasharray:none;stroke-opacity:1"
                 id="path1278" />
              <path
                 d="M 793.938,145.279 C 726.379,114.259 660.631,83.865 595.607,58.577 514.811,27.179 435.389,5.124 380.4,14.354 c -26.627,4.497 -48.226,17.026 -61.908,34.819 -15.242,19.838 -22.437,46.066 -24.654,75.785 -4.9,65.908 13.129,139.496 27.975,208.479 6.587,30.726 12.257,57.989 13.07,80.648 0.666,18.517 -2.18,33.404 -13.192,40.221 -9.529,5.859 -28.273,4.456 -47.98,-1.507 -24.319,-7.346 -51.786,-19.77 -82.837,-34.367 C 156.098,402.039 118.549,383.482 77.651,364.237 53.201,352.728 27.947,341.151 1.858,329.765"
                 style="fill:none;stroke:#e4e4e4;stroke-width:0.5;stroke-linecap:butt;stroke-linejoin:miter;stroke-miterlimit:4;stroke-dasharray:none;stroke-opacity:1"
                 id="path1280" />
              <path
                 d="M 793.938,144.749 C 725.793,113.296 659.514,82.509 593.984,56.933 513.061,25.366 433.463,3.22 378.584,12.61 c -26.613,4.563 -48.088,17.258 -61.662,35.196 -15.111,20.035 -22.141,46.472 -24.152,76.422 -4.497,66.416 14.044,140.468 29.279,209.834 6.803,30.871 12.584,58.235 13.519,80.966 0.758,18.55 -1.998,33.461 -12.998,40.239 -9.511,5.827 -28.273,4.352 -47.99,-1.682 C 250.221,446.146 222.709,433.654 191.606,418.97 156.759,402.508 119.166,383.856 78.203,364.536 53.575,352.919 28.14,341.229 1.858,329.744"
                 style="fill:none;stroke:#e4e4e4;stroke-width:0.5;stroke-linecap:butt;stroke-linejoin:miter;stroke-miterlimit:4;stroke-dasharray:none;stroke-opacity:1"
                 id="path1282" />
              <path
                 d="M 793.938,144.436 C 725.441,112.72 658.843,81.694 593.006,55.946 512.006,24.282 432.318,2.095 377.49,11.562 c -26.588,4.619 -48.031,17.384 -61.515,35.419 -15.039,20.151 -21.936,46.723 -23.847,76.809 -4.21,66.732 14.573,141.051 30.06,210.647 6.886,30.953 12.769,58.38 13.791,81.157 0.82,18.569 -1.883,33.497 -12.881,40.25 -9.475,5.823 -28.268,4.272 -47.997,-1.787 C 250.72,446.558 223.178,434.033 192.048,419.293 157.171,402.774 119.536,384.079 78.536,364.717 53.808,353.026 28.26,341.272 1.858,329.728"
                 style="fill:none;stroke:#e4e4e4;stroke-width:0.5;stroke-linecap:butt;stroke-linejoin:miter;stroke-miterlimit:4;stroke-dasharray:none;stroke-opacity:1"
                 id="path1284" />
              <path
                 d="m 301.465,-0.69 c -30.239,53.195 -68.044,106.818 -91.805,163.311 -20.107,47.878 -29.713,97.025 -21.068,140.446 8.569,42.825 34.669,80.844 65.709,113.626 30.851,32.577 64.508,59.038 86.385,89.805 19.054,26.827 24.537,61.477 13.224,94.863 -1.146,3.38 -2.408,6.777 -3.775,10.196"
                 style="fill:none;stroke:#e4e4e4;stroke-width:0.5;stroke-linecap:butt;stroke-linejoin:miter;stroke-miterlimit:4;stroke-dasharray:none;stroke-opacity:1"
                 id="path1286" />
              <path
                 d="m 281.018,-0.69 c -30.015,54.423 -66.689,108.961 -87.728,166.556 -17.39,47.683 -22.854,96.877 -9.965,139.036 13.016,42.486 43.529,78.823 77.794,110.667 33.768,31.341 68.988,56.827 90.58,87.468 18.594,26.435 21.589,61.774 8.222,95.564 -1.702,4.29 -3.575,8.606 -5.605,12.956"
                 style="fill:none;stroke:#e4e4e4;stroke-width:0.5;stroke-linecap:butt;stroke-linejoin:miter;stroke-miterlimit:4;stroke-dasharray:none;stroke-opacity:1"
                 id="path1288" />
              <path
                 d="m 261.609,-0.69 c -30.37,55.802 -66.303,111.336 -84.732,170.101 -14.875,47.533 -16.172,96.732 0.836,137.621 17.537,42.082 52.323,76.754 89.879,107.62 36.594,30.097 73.408,54.571 94.719,85.058 18.16,26.024 18.712,61.97 3.373,96.147 -2.33,5.176 -4.916,10.405 -7.725,15.7"
                 style="fill:none;stroke:#e4e4e4;stroke-width:0.5;stroke-linecap:butt;stroke-linejoin:miter;stroke-miterlimit:4;stroke-dasharray:none;stroke-opacity:1"
                 id="path1290" />
              <path
                 d="m 243.317,-0.69 c -31.265,57.309 -66.822,113.921 -82.748,173.88 -12.559,47.437 -9.707,96.579 11.29,136.217 22.074,41.603 61.033,74.611 101.883,104.508 39.365,28.802 77.758,52.278 98.776,82.603 17.722,25.624 15.921,62.073 -1.309,96.626 -3.021,6.059 -6.377,12.19 -10.012,18.413"
                 style="fill:none;stroke:#e4e4e4;stroke-width:0.5;stroke-linecap:butt;stroke-linejoin:miter;stroke-miterlimit:4;stroke-dasharray:none;stroke-opacity:1"
                 id="path1292" />
              <path
                 d="m 226.216,-0.69 c -32.65,58.913 -68.19,116.692 -81.715,177.837 -10.439,47.383 -3.468,96.385 21.359,134.832 26.584,41.047 69.594,72.439 113.728,101.361 42.033,27.527 82.006,49.971 102.725,80.12 17.306,25.225 13.171,62.075 -5.81,97.009 -3.776,6.922 -7.956,13.941 -12.472,21.088"
                 style="fill:none;stroke:#e4e4e4;stroke-width:0.5;stroke-linecap:butt;stroke-linejoin:miter;stroke-miterlimit:4;stroke-dasharray:none;stroke-opacity:1"
                 id="path1294" />
              <path
                 d="m 210.329,-0.69 c -34.461,60.589 -70.31,119.618 -81.547,181.912 -8.496,47.382 2.477,96.18 31.017,133.474 31.006,40.442 77.951,70.283 125.347,98.206 44.595,26.273 86.113,47.683 106.546,77.64 16.896,24.836 10.562,62.026 -10.12,97.306 -4.556,7.766 -9.603,15.654 -15.042,23.709"
                 style="fill:none;stroke:#e4e4e4;stroke-width:0.5;stroke-linecap:butt;stroke-linejoin:miter;stroke-miterlimit:4;stroke-dasharray:none;stroke-opacity:1"
                 id="path1296" />
              <path
                 d="m 195.675,-0.69 c -36.632,62.309 -73.107,122.655 -82.17,186.058 -6.723,47.424 8.136,95.942 40.247,132.15 35.335,39.777 86.072,68.155 136.678,95.066 47.058,25.035 90.078,45.417 110.219,75.177 16.501,24.462 8.033,61.905 -14.231,97.524 -5.367,8.588 -11.307,17.323 -17.692,26.272"
                 style="fill:none;stroke:#e4e4e4;stroke-width:0.5;stroke-linecap:butt;stroke-linejoin:miter;stroke-miterlimit:4;stroke-dasharray:none;stroke-opacity:1"
                 id="path1298" />
              <path
                 d="m 182.226,-0.69 c -39.093,64.05 -76.476,125.767 -83.474,190.227 -5.105,47.509 13.499,95.674 49.029,130.868 39.522,39.084 93.949,66.031 147.67,91.962 49.403,23.839 93.877,43.193 113.73,72.755 16.118,24.104 5.63,61.738 -18.138,97.675 -6.205,9.376 -13.059,18.934 -20.406,28.76"
                 style="fill:none;stroke:#e4e4e4;stroke-width:0.5;stroke-linecap:butt;stroke-linejoin:miter;stroke-miterlimit:4;stroke-dasharray:none;stroke-opacity:1"
                 id="path1300" />
              <path
                 d="m 169.952,-0.69 c -41.774,65.794 -80.308,128.92 -85.37,194.383 -3.621,47.621 18.548,95.394 57.365,129.626 43.554,38.368 101.519,63.982 158.27,88.916 26.754,11.738 51.73,22.598 73.219,34.638 18.988,10.656 34.759,22.082 43.847,35.749 15.765,23.756 3.342,61.537 -21.839,97.768 -7.052,10.132 -14.832,20.485 -23.146,31.167"
                 style="fill:none;stroke:#e4e4e4;stroke-width:0.5;stroke-linecap:butt;stroke-linejoin:miter;stroke-miterlimit:4;stroke-dasharray:none;stroke-opacity:1"
                 id="path1302" />
              <path
                 d="m 158.914,-0.69 c -8.552,13.082 -16.999,26.211 -25.145,39.46 -33.141,53.932 -60.243,107.749 -62.721,159.026 -2.265,47.764 23.3,95.091 65.248,128.433 47.412,37.645 108.775,61.985 168.437,85.947 27.921,11.217 53.808,21.567 75.943,33.23 19.378,10.234 35.366,21.344 44.27,34.857 15.426,23.434 1.193,61.314 -25.323,97.811 -7.89,10.858 -16.583,21.974 -25.853,33.483"
                 style="fill:none;stroke:#e4e4e4;stroke-width:0.5;stroke-linecap:butt;stroke-linejoin:miter;stroke-miterlimit:4;stroke-dasharray:none;stroke-opacity:1"
                 id="path1304" />
              <path
                 d="M 149.038,-0.69 C 139.422,13.482 129.965,27.703 120.902,42.067 86.739,96.245 59.338,150.59 58.199,201.813 c -1.014,47.924 27.749,94.777 72.674,127.288 51.089,36.914 115.676,60.077 178.129,83.072 29.025,10.713 55.787,20.546 78.512,31.874 19.738,9.835 35.914,20.65 44.658,34 15.096,23.136 -0.848,61.062 -28.592,97.81 -8.723,11.546 -18.319,23.393 -28.529,35.7"
                 style="fill:none;stroke:#e4e4e4;stroke-width:0.5;stroke-linecap:butt;stroke-linejoin:miter;stroke-miterlimit:4;stroke-dasharray:none;stroke-opacity:1"
                 id="path1306" />
              <path
                 d="m 140.118,-0.69 c -10.71,15.231 -21.202,30.513 -31.193,45.961 -35.18,54.411 -62.939,109.277 -62.86,160.44 0.123,48.101 31.895,94.468 79.643,126.194 54.567,36.203 122.227,58.233 187.315,80.311 30.079,10.202 57.63,19.603 80.93,30.576 20.066,9.456 36.427,19.978 44.999,33.181 14.795,22.853 -2.743,60.805 -31.644,97.773 -9.523,12.205 -20.007,24.744 -31.136,37.811"
                 style="fill:none;stroke:#e4e4e4;stroke-width:0.5;stroke-linecap:butt;stroke-linejoin:miter;stroke-miterlimit:4;stroke-dasharray:none;stroke-opacity:1"
                 id="path1308" />
              <path
                 d="M 132.096,-0.69 C 120.275,15.563 108.741,31.867 97.818,48.361 61.651,102.997 33.499,158.362 34.679,209.463 c 1.176,48.282 35.738,94.165 86.153,125.157 57.83,35.519 128.392,56.48 195.965,77.674 31.055,9.728 59.351,18.705 83.178,29.343 20.365,9.107 36.907,19.335 45.311,32.402 14.512,22.594 -4.543,60.517 -34.48,97.709 -10.326,12.808 -21.66,26.009 -33.668,39.809"
                 style="fill:none;stroke:#e4e4e4;stroke-width:0.5;stroke-linecap:butt;stroke-linejoin:miter;stroke-miterlimit:4;stroke-dasharray:none;stroke-opacity:1"
                 id="path1310" />
              <path
                 d="M 124.914,-0.69 C 111.981,16.544 99.407,33.822 87.561,51.317 50.453,106.168 21.887,162.008 24.067,213.043 c 2.129,48.466 39.304,93.853 92.204,124.177 60.876,34.861 134.153,54.832 204.05,75.179 31.956,9.302 60.948,17.861 85.265,28.18 20.637,8.767 37.324,18.744 45.581,31.67 14.255,22.357 -6.17,60.264 -37.101,97.625 -11.07,13.388 -23.234,27.199 -36.093,41.683"
                 style="fill:none;stroke:#e4e4e4;stroke-width:0.5;stroke-linecap:butt;stroke-linejoin:miter;stroke-miterlimit:4;stroke-dasharray:none;stroke-opacity:1"
                 id="path1312" />
              <path
                 d="M 118.501,-0.69 C 104.476,17.471 90.883,35.677 78.143,54.123 40.14,109.163 11.16,165.458 14.25,216.425 c 3.002,48.649 42.569,93.564 97.789,123.258 63.705,34.229 139.503,53.286 211.554,72.837 32.789,8.897 62.42,17.057 87.178,27.097 20.884,8.453 37.697,18.195 45.822,30.985 13.993,22.156 -7.676,60.002 -39.503,97.523 -11.802,13.91 -24.738,28.299 -38.395,43.432"
                 style="fill:none;stroke:#e4e4e4;stroke-width:0.5;stroke-linecap:butt;stroke-linejoin:miter;stroke-miterlimit:4;stroke-dasharray:none;stroke-opacity:1"
                 id="path1314" />
              <path
                 d="M 112.824,-0.69 C 97.737,18.341 83.157,37.415 69.551,56.753 30.724,111.975 1.344,168.686 5.239,219.586 c 1.891,24.313 12.121,48.065 28.856,67.772 18.239,21.467 44.073,39.401 74.053,54.635 66.31,33.635 144.422,51.87 218.457,70.658 33.551,8.519 63.749,16.353 88.926,26.091 21.095,8.186 38.057,17.673 46.026,30.356 6.94,11.046 5.76,26.615 -1.163,41.235 -8.378,17.649 -23.045,35.974 -40.529,56.177 -12.474,14.396 -26.146,29.313 -40.552,45.047"
                 style="fill:none;stroke:#e4e4e4;stroke-width:0.5;stroke-linecap:butt;stroke-linejoin:miter;stroke-miterlimit:4;stroke-dasharray:none;stroke-opacity:1"
                 id="path1316" />
              <path
                 d="m 2.179,246.743 c 5.195,15.596 13.89,30.382 25.466,43.339 19.128,21.371 45.942,39.077 76.967,54.045 68.683,33.083 148.911,50.547 224.742,68.659 34.24,8.175 64.964,15.675 90.5,25.172 21.291,7.931 38.344,17.216 46.206,29.778 6.803,10.935 5.302,26.48 -1.947,41.031 -8.753,17.679 -23.832,36.007 -41.717,56.265 -13.105,14.831 -27.445,30.24 -42.539,46.525"
                 style="fill:none;stroke:#e4e4e4;stroke-width:0.5;stroke-linecap:butt;stroke-linejoin:miter;stroke-miterlimit:4;stroke-dasharray:none;stroke-opacity:1"
                 id="path1318" />
              <path
                 d="M 107.826,-0.69 C 91.726,19.151 76.205,39.028 61.78,59.195 34.691,97.091 12.196,135.791 2.179,172.737"
                 style="fill:none;stroke:#e4e4e4;stroke-width:0.5;stroke-linecap:butt;stroke-linejoin:miter;stroke-miterlimit:4;stroke-dasharray:none;stroke-opacity:1"
                 id="path1320" />
              <path
                 d="m 2.179,265.159 c 5.179,9.752 11.8,18.986 19.674,27.407 19.917,21.296 47.615,38.792 79.59,53.513 70.804,32.598 152.948,49.348 230.393,66.84 34.858,7.849 66.042,15.076 91.903,24.343 21.461,7.695 38.628,16.783 46.36,29.256 6.698,10.822 4.855,26.337 -2.652,40.841 -9.121,17.694 -24.543,36.024 -42.772,56.339 -13.68,15.232 -28.646,31.073 -44.372,47.859"
                 style="fill:none;stroke:#e4e4e4;stroke-width:0.5;stroke-linecap:butt;stroke-linejoin:miter;stroke-miterlimit:4;stroke-dasharray:none;stroke-opacity:1"
                 id="path1322" />
              <path
                 d="M 103.465,-0.69 C 86.414,19.892 70.012,40.506 54.825,61.43 32.92,91.636 14.016,122.41 2.179,152.368"
                 style="fill:none;stroke:#e4e4e4;stroke-width:0.5;stroke-linecap:butt;stroke-linejoin:miter;stroke-miterlimit:4;stroke-dasharray:none;stroke-opacity:1"
                 id="path1324" />
              <path
                 d="m 2.179,276.988 c 4.243,6.246 9.112,12.213 14.543,17.809 20.613,21.229 49.114,38.501 81.919,53.032 72.696,32.14 156.52,48.303 235.4,65.219 35.396,7.6 66.989,14.553 93.142,23.603 21.602,7.498 38.859,16.406 46.483,28.792 6.597,10.729 4.442,26.197 -3.271,40.672 -9.463,17.691 -25.154,36.043 -43.702,56.397 -14.188,15.589 -29.716,31.814 -46.009,49.045"
                 style="fill:none;stroke:#e4e4e4;stroke-width:0.5;stroke-linecap:butt;stroke-linejoin:miter;stroke-miterlimit:4;stroke-dasharray:none;stroke-opacity:1"
                 id="path1326" />
              <path
                 d="M 99.699,-0.69 C 81.774,20.559 64.568,41.833 48.687,63.44 30.283,88.498 13.994,113.98 2.179,139.058"
                 style="fill:none;stroke:#e4e4e4;stroke-width:0.5;stroke-linecap:butt;stroke-linejoin:miter;stroke-miterlimit:4;stroke-dasharray:none;stroke-opacity:1"
                 id="path1328" />
              <path
                 d="m 2.179,285.519 c 3.113,3.886 6.482,7.641 10.086,11.238 21.229,21.157 50.403,38.277 83.943,52.611 74.334,31.754 159.635,47.38 239.759,63.797 35.871,7.334 67.813,14.072 94.208,22.959 21.728,7.322 39.04,16.089 46.589,28.387 6.51,10.648 4.114,26.09 -3.81,40.523 -9.736,17.695 -25.703,36.037 -44.5,56.442 -14.662,15.878 -30.671,32.452 -47.458,50.081"
                 style="fill:none;stroke:#e4e4e4;stroke-width:0.5;stroke-linecap:butt;stroke-linejoin:miter;stroke-miterlimit:4;stroke-dasharray:none;stroke-opacity:1"
                 id="path1330" />
              <path
                 d="M 96.502,-0.69 C 77.793,21.147 59.863,43.005 43.362,65.217 27.603,86.439 13.39,107.992 2.179,129.345"
                 style="fill:none;stroke:#e4e4e4;stroke-width:0.5;stroke-linecap:butt;stroke-linejoin:miter;stroke-miterlimit:4;stroke-dasharray:none;stroke-opacity:1"
                 id="path1332" />
              <path
                 d="m 2.179,291.896 c 2.015,2.232 4.117,4.414 6.304,6.539 21.755,21.093 51.506,38.07 85.665,52.252 75.732,31.409 162.281,46.582 243.457,62.583 36.262,7.159 68.507,13.677 95.11,22.409 21.833,7.168 39.21,15.808 46.674,28.044 6.439,10.574 3.84,25.999 -4.265,40.393 -9.97,17.699 -26.157,36.038 -45.175,56.476 -15.033,16.153 -31.469,33.009 -48.684,50.965"
                 style="fill:none;stroke:#e4e4e4;stroke-width:0.5;stroke-linecap:butt;stroke-linejoin:miter;stroke-miterlimit:4;stroke-dasharray:none;stroke-opacity:1"
                 id="path1334" />
              <path
                 d="M 93.842,-0.69 C 74.449,21.652 55.889,44.01 38.848,66.738 25.145,85.027 12.608,103.576 2.179,122.031"
                 style="fill:none;stroke:#e4e4e4;stroke-width:0.5;stroke-linecap:butt;stroke-linejoin:miter;stroke-miterlimit:4;stroke-dasharray:none;stroke-opacity:1"
                 id="path1336" />
              <path
                 d="m 2.179,296.672 c 1.05,1.062 2.12,2.113 3.21,3.149 22.172,21.052 52.408,37.896 87.077,51.955 76.873,31.138 164.452,45.923 246.489,61.582 36.588,6.972 69.072,13.357 95.844,21.958 21.917,7.044 39.342,15.58 46.738,27.763 6.382,10.517 3.608,25.918 -4.639,40.284 -10.159,17.7 -26.519,36.042 -45.722,56.505 -15.352,16.369 -32.137,33.458 -49.705,51.689"
                 style="fill:none;stroke:#e4e4e4;stroke-width:0.5;stroke-linecap:butt;stroke-linejoin:miter;stroke-miterlimit:4;stroke-dasharray:none;stroke-opacity:1"
                 id="path1338" />
              <path
                 d="M 91.695,-0.69 C 71.73,22.07 52.644,44.843 35.156,68 23.039,84.054 11.832,100.315 2.179,116.539"
                 style="fill:none;stroke:#e4e4e4;stroke-width:0.5;stroke-linecap:butt;stroke-linejoin:miter;stroke-miterlimit:4;stroke-dasharray:none;stroke-opacity:1"
                 id="path1340" />
              <path
                 d="m 2.179,300.157 c 0.264,0.251 0.53,0.501 0.797,0.75 22.505,21.015 53.112,37.778 88.179,51.723 77.77,30.911 166.142,45.435 248.853,60.798 36.837,6.864 69.513,13.104 96.414,21.606 21.983,6.948 39.435,15.409 46.791,27.543 6.315,10.484 3.428,25.859 -4.931,40.202 -10.298,17.706 -26.818,36.03 -46.149,56.521 -15.63,16.516 -32.685,33.799 -50.526,52.257"
                 style="fill:none;stroke:#e4e4e4;stroke-width:0.5;stroke-linecap:butt;stroke-linejoin:miter;stroke-miterlimit:4;stroke-dasharray:none;stroke-opacity:1"
                 id="path1342" />
              <path
                 d="M 90.054,-0.69 C 69.632,22.4 50.127,45.499 32.28,68.992 21.352,83.39 11.163,97.96 2.179,112.521"
                 style="fill:none;stroke:#e4e4e4;stroke-width:0.5;stroke-linecap:butt;stroke-linejoin:miter;stroke-miterlimit:4;stroke-dasharray:none;stroke-opacity:1"
                 id="path1344" />
              <path
                 d="m 2.179,302.538 c 22.657,20.584 53.164,37.029 88.042,50.705 78.399,30.774 167.355,45.051 250.541,60.238 37.023,6.74 69.827,12.925 96.82,21.353 22.028,6.881 39.518,15.276 46.826,27.385 6.281,10.454 3.304,25.817 -5.137,40.14 -10.413,17.703 -27.015,36.037 -46.451,56.536 -15.798,16.648 -33.051,34.057 -51.093,52.662"
                 style="fill:none;stroke:#e4e4e4;stroke-width:0.5;stroke-linecap:butt;stroke-linejoin:miter;stroke-miterlimit:4;stroke-dasharray:none;stroke-opacity:1"
                 id="path1346" />
              <path
                 d="M 88.884,-0.69 C 68.134,22.637 48.327,45.969 30.225,69.706 20.125,82.958 10.654,96.361 2.179,109.769"
                 style="fill:none;stroke:#e4e4e4;stroke-width:0.5;stroke-linecap:butt;stroke-linejoin:miter;stroke-miterlimit:4;stroke-dasharray:none;stroke-opacity:1"
                 id="path1348" />
              <path
                 d="m 2.179,303.93 c 22.685,20.139 52.961,36.237 87.479,49.68 78.793,30.66 168.081,44.838 251.558,59.904 37.127,6.703 70.009,12.827 97.065,21.201 22.056,6.838 39.564,15.193 46.847,27.288 6.276,10.423 3.208,25.781 -5.263,40.105 -10.485,17.696 -27.131,36.042 -46.634,56.543 -15.909,16.716 -33.28,34.206 -51.44,52.906"
                 style="fill:none;stroke:#e4e4e4;stroke-width:0.5;stroke-linecap:butt;stroke-linejoin:miter;stroke-miterlimit:4;stroke-dasharray:none;stroke-opacity:1"
                 id="path1350" />
              <path
                 d="M 88.186,-0.69 C 67.237,22.78 47.247,46.254 28.99,70.138 19.378,82.72 10.336,95.438 2.179,108.17"
                 style="fill:none;stroke:#e4e4e4;stroke-width:0.5;stroke-linecap:butt;stroke-linejoin:miter;stroke-miterlimit:4;stroke-dasharray:none;stroke-opacity:1"
                 id="path1352" />
            </g>
          </g>
        </g>
      </g>
    </g>
  </g>
</svg>
